<svg xmlns="http://www.w3.org/2000/svg" width="447" height="356.526" viewBox="0 0 447 356.526"><g transform="translate(-195)"><path d="M831.454,641.881H412.546A14.046,14.046,0,0,1,398.5,627.835h0q227.781-26.473,447,0h0A14.046,14.046,0,0,1,831.454,641.881Z" transform="translate(-203.5 -285.355)" fill="#2f2e41"/><path d="M845.5,532.652l-447-.826,51.806-87.169.248-.413V252.132a17.755,17.755,0,0,1,17.758-17.756h304.9a17.755,17.755,0,0,1,17.756,17.758V445.565Z" transform="translate(-203.5 -189.346)" fill="#3f3d56"/><path d="M489.4,250.957a5.79,5.79,0,0,0-5.784,5.784V431.905a5.79,5.79,0,0,0,5.784,5.784h308.19a5.791,5.791,0,0,0,5.784-5.784V256.741a5.791,5.791,0,0,0-5.784-5.784Z" transform="translate(-224.992 -193.533)" fill="#fff"/><path d="M486.848,531.718a2.486,2.486,0,0,0-2.252,1.443l-15.963,34.7a2.479,2.479,0,0,0,2.252,3.515H806.577a2.478,2.478,0,0,0,2.217-3.587l-17.351-34.7a2.466,2.466,0,0,0-2.216-1.37Z" transform="translate(-221.152 -264.427)" fill="#2f2e41"/><circle cx="3.718" cy="3.718" r="3.718" transform="translate(413.543 47.096)" fill="#fff"/><path d="M649.51,593.618a2.483,2.483,0,0,0-2.393,1.834l-4,14.872a2.478,2.478,0,0,0,2.393,3.123h76.15a2.478,2.478,0,0,0,2.342-3.29l-5.148-14.873a2.48,2.48,0,0,0-2.342-1.668Z" transform="translate(-265.245 -280.057)" fill="#2f2e41"/><path d="M604.968,337.135v3.3H264.306l.256-.413v-2.892Z" transform="translate(-17.5 -85.129)" fill="#2f2e41"/><circle cx="57.837" cy="57.837" r="57.837" transform="translate(520.129 0)" fill="#063898"/><path d="M925.585,273.221H877.663a3.308,3.308,0,0,1-3.3-3.3V241a3.309,3.309,0,0,1,3.3-3.3h47.922a3.308,3.308,0,0,1,3.305,3.3v28.919a3.308,3.308,0,0,1-3.3,3.305ZM877.663,241v28.919h47.925l0-28.919Z" transform="translate(-323.658 -190.183)" fill="#fff"/><path d="M920.683,232.066H890.938v-13.22c0-9.575,6.255-16.525,14.872-16.525s14.872,6.95,14.872,16.525Zm-26.44-3.3h23.135v-9.915c0-7.784-4.757-13.22-11.567-13.22s-11.567,5.436-11.567,13.22Z" transform="translate(-327.845 -181.252)" fill="#fff"/><circle cx="3.305" cy="3.305" r="3.305" transform="translate(574.661 61.142)" fill="#fff"/><path d="M774.871,398.345H536.69a4.416,4.416,0,0,1-4.411-4.411V334.852a4.416,4.416,0,0,1,4.411-4.411H774.871a4.416,4.416,0,0,1,4.411,4.411v59.082A4.416,4.416,0,0,1,774.871,398.345ZM536.69,332.206a2.649,2.649,0,0,0-2.646,2.646v59.082a2.649,2.649,0,0,0,2.646,2.646H774.871a2.649,2.649,0,0,0,2.646-2.646V334.852a2.649,2.649,0,0,0-2.646-2.646Z" transform="translate(-237.28 -213.603)" fill="#e6e6e6"/><circle cx="17.967" cy="17.967" r="17.967" transform="translate(318.451 130.556)" fill="#e6e6e6"/><path d="M642.191,356.805a2.995,2.995,0,0,0,0,5.989h141.17a2.995,2.995,0,0,0,0-5.989Z" transform="translate(-264.278 -220.26)" fill="#e6e6e6"/><path d="M642.191,380.842a2.994,2.994,0,1,0,0,5.989h60.746a2.994,2.994,0,1,0,0-5.989Z" transform="translate(-264.278 -226.33)" fill="#e6e6e6"/></g></svg>