<svg xmlns="http://www.w3.org/2000/svg" width="16" height="11" viewBox="0 0 16 11"><g transform="translate(0 -2)"><path d="M7.646,5.146a.5.5,0,0,1,.708,0l2,2a.5.5,0,0,1-.708.708L8.5,6.707V10.5a.5.5,0,0,1-1,0V6.707L6.354,7.854a.5.5,0,0,1-.708-.708Z" fill="#063898" fill-rule="evenodd"/><path d="M4.406,3.342A5.53,5.53,0,0,1,8,2a5.136,5.136,0,0,1,5.166,4.579A3.223,3.223,0,0,1,12.687,13H3.781a3.675,3.675,0,0,1-.839-7.275A4.206,4.206,0,0,1,4.406,3.342Zm.653.757A2.961,2.961,0,0,0,3.906,6.155V6.6l-.445.049A2.679,2.679,0,0,0,3.781,12h8.906a2.229,2.229,0,1,0,0-4.455h-.5v-.5A4.116,4.116,0,0,0,8,3,4.53,4.53,0,0,0,5.059,4.1Z" fill="#063898"/></g></svg>