<svg xmlns="http://www.w3.org/2000/svg" width="16" height="14" viewBox="0 0 16 14"><g transform="translate(0 -1)"><path d="M2.5,8A.5.5,0,1,0,2,7.5.5.5,0,0,0,2.5,8Z" fill="#063898"/><path d="M5,1A2,2,0,0,0,3,3V5H2A2,2,0,0,0,0,7v3a2,2,0,0,0,2,2H3v1a2,2,0,0,0,2,2h6a2,2,0,0,0,2-2V12h1a2,2,0,0,0,2-2V7a2,2,0,0,0-2-2H13V3a2,2,0,0,0-2-2ZM4,3A1,1,0,0,1,5,2h6a1,1,0,0,1,1,1V5H4ZM5,8a2,2,0,0,0-2,2v1H2a1,1,0,0,1-1-1V7A1,1,0,0,1,2,6H14a1,1,0,0,1,1,1v3a1,1,0,0,1-1,1H13V10a2,2,0,0,0-2-2Zm7,2v3a1,1,0,0,1-1,1H5a1,1,0,0,1-1-1V10A1,1,0,0,1,5,9h6A1,1,0,0,1,12,10Z" fill="#063898"/></g></svg>