<svg xmlns="http://www.w3.org/2000/svg" width="54.45899963378906" height="50.56999969482422" viewBox="0 0 54.459 50.57"><g transform="translate(-1.5 -1.499)"><path d="M5.39,26.786A21.394,21.394,0,0,1,37.481,8.255a1.945,1.945,0,1,0,1.945-3.369,25.283,25.283,0,1,0,12.642,21.9,1.945,1.945,0,1,0-3.89,0,21.394,21.394,0,0,1-42.787,0Z" transform="translate(0 0)" fill="#3fba6a" class="svg-elem-1"></path><path d="M46.721,5.824A1.947,1.947,0,1,0,43.967,3.07L18.116,28.925,7.824,18.629A1.947,1.947,0,0,0,5.07,21.383L16.739,33.052a1.945,1.945,0,0,0,2.754,0Z" transform="translate(8.668 2.891)" fill="#3fba6a" class="svg-elem-2"></path></g></svg>