<svg xmlns="http://www.w3.org/2000/svg" width="18.049" height="18.029" viewBox="0 0 18.049 18.029"><g transform="translate(0 -0.256)"><g transform="translate(0 0.256)"><path d="M18.049,9.281,16.5,7.268l.346-2.5-2.358-.935-.935-2.358-2.5.346L9.025.256,7.012,1.8l-2.5-.346L3.577,3.813,1.22,4.748l.346,2.5L0,9.281l1.545,2.012-.346,2.5,2.358.935.935,2.358,2.5-.346L9,18.285l2.012-1.545,2.5.346.935-2.358,2.358-.955-.346-2.5ZM8.293,12.208,5.285,9.728l.65-.793,2.236,1.829,3.821-4.411.772.671Z" transform="translate(0 -0.256)" fill="#3fba6a"/></g></g></svg>