<svg xmlns="http://www.w3.org/2000/svg" width="16" height="16.001" viewBox="0 0 16 16.001"><path d="M4.406,1.342A5.53,5.53,0,0,1,8,0a5.136,5.136,0,0,1,5.166,4.579A3.256,3.256,0,0,1,16,7.773,3.271,3.271,0,0,1,12.687,11H10a.5.5,0,0,1,0-1h2.688A2.271,2.271,0,0,0,15,7.773a2.271,2.271,0,0,0-2.313-2.228h-.5v-.5A4.116,4.116,0,0,0,8,1,4.53,4.53,0,0,0,5.059,2.1,2.956,2.956,0,0,0,3.906,4.155V4.6l-.445.049A2.719,2.719,0,0,0,1,7.318,2.732,2.732,0,0,0,3.781,10H6a.5.5,0,0,1,0,1H3.781A3.733,3.733,0,0,1,0,7.318,3.707,3.707,0,0,1,2.942,3.725,4.206,4.206,0,0,1,4.406,1.342Z" fill="#bcbcbc"/><path d="M7.646,15.854a.5.5,0,0,0,.708,0l3-3a.5.5,0,1,0-.708-.708L8.5,14.293V5.5a.5.5,0,0,0-1,0v8.793L5.354,12.146a.5.5,0,1,0-.708.708Z" fill="#bcbcbc"/></svg>