<svg xmlns="http://www.w3.org/2000/svg" width="320" height="320" viewBox="0 0 320 320"><g transform="translate(-480 -439)"><rect width="320" height="320" transform="translate(480 439)" fill="#e6e6e6"/><g transform="translate(578 537)"><path d="M371.876,34.881a3.876,3.876,0,0,0,3.876-3.876V11.143a3.4,3.4,0,0,1,3.391-3.391h19.863a3.876,3.876,0,1,0,0-7.751H379.143A11.155,11.155,0,0,0,368,11.143V31.006A3.876,3.876,0,0,0,371.876,34.881Z" transform="translate(-368)"/><path d="M31.006,34.881a3.876,3.876,0,0,0,3.876-3.876V11.143A11.155,11.155,0,0,0,23.739,0H3.876a3.876,3.876,0,0,0,0,7.751H23.739a3.4,3.4,0,0,1,3.391,3.391V31.006A3.876,3.876,0,0,0,31.006,34.881Z" transform="translate(89.141 0)"/><path d="M3.876,402.881H23.739a11.156,11.156,0,0,0,11.143-11.143V371.876a3.876,3.876,0,1,0-7.751,0v19.863a3.4,3.4,0,0,1-3.391,3.391H3.876a3.876,3.876,0,0,0,0,7.752Z" transform="translate(89.141 -278.859)"/><path d="M379.143,402.881h19.863a3.876,3.876,0,1,0,0-7.752H379.143a3.4,3.4,0,0,1-3.391-3.391V371.876a3.876,3.876,0,0,0-7.752,0v19.863A11.155,11.155,0,0,0,379.143,402.881Z" transform="translate(-368 -278.859)"/><path d="M75.143,106.633H95.49A11.155,11.155,0,0,0,106.633,95.49V75.143A11.155,11.155,0,0,0,95.49,64H75.143A11.156,11.156,0,0,0,64,75.143V95.49A11.155,11.155,0,0,0,75.143,106.633ZM95.49,71.751a3.4,3.4,0,0,1,3.391,3.391V95.49a3.4,3.4,0,0,1-3.391,3.391H75.143a3.4,3.4,0,0,1-3.391-3.391V75.143a3.4,3.4,0,0,1,3.391-3.391Z" transform="translate(1.887 -48.497)"/><path d="M75.143,314.633H95.49a11.156,11.156,0,0,0,11.143-11.143V283.143A11.155,11.155,0,0,0,95.49,272H75.143A11.155,11.155,0,0,0,64,283.143V303.49A11.156,11.156,0,0,0,75.143,314.633ZM95.49,279.751a3.4,3.4,0,0,1,3.391,3.391V303.49a3.4,3.4,0,0,1-3.391,3.391H75.143a3.4,3.4,0,0,1-3.391-3.391V283.143a3.4,3.4,0,0,1,3.391-3.391Z" transform="translate(1.887 -206.113)"/><path d="M283.143,106.633H303.49A11.156,11.156,0,0,0,314.633,95.49V75.143A11.156,11.156,0,0,0,303.49,64H283.143A11.155,11.155,0,0,0,272,75.143V95.49A11.155,11.155,0,0,0,283.143,106.633ZM303.49,71.751a3.4,3.4,0,0,1,3.391,3.391V95.49a3.4,3.4,0,0,1-3.391,3.391H283.143a3.4,3.4,0,0,1-3.391-3.391V75.143a3.4,3.4,0,0,1,3.391-3.391Z" transform="translate(-256.497 -48.497)"/><path d="M278.3,291.379h9.2V278.3a6.305,6.305,0,0,1,6.3-6.3h14.534a6.305,6.305,0,0,1,6.3,6.3v14.534a6.305,6.305,0,0,1-6.3,6.3h-13.08v9.2a6.305,6.305,0,0,1-6.3,6.3H278.3a6.305,6.305,0,0,1-6.3-6.3V297.676A6.305,6.305,0,0,1,278.3,291.379Zm28.583-11.627H295.254v11.627h11.627Zm-27.13,27.13H287.5V299.13h-7.751Z" transform="translate(-256.497 -206.113)"/><path d="M131.876,139.627h3.876a3.876,3.876,0,0,0,3.876-3.876v-3.876A3.876,3.876,0,0,0,135.751,128h-3.876A3.876,3.876,0,0,0,128,131.876v3.876A3.876,3.876,0,0,0,131.876,139.627Z" transform="translate(-46.61 -96.994)"/><path d="M339.876,139.627h3.876a3.876,3.876,0,0,0,3.876-3.876v-3.876A3.876,3.876,0,0,0,343.751,128h-3.876A3.876,3.876,0,0,0,336,131.876v3.876A3.876,3.876,0,0,0,339.876,139.627Z" transform="translate(-304.994 -96.994)"/><path d="M131.876,347.627h3.876a3.876,3.876,0,0,0,3.876-3.876v-3.876A3.876,3.876,0,0,0,135.751,336h-3.876A3.876,3.876,0,0,0,128,339.876v3.876A3.876,3.876,0,0,0,131.876,347.627Z" transform="translate(-46.61 -254.61)"/></g></g></svg>