<svg xmlns="http://www.w3.org/2000/svg" width="320" height="320" viewBox="0 0 320 320"><g transform="translate(-480 -439)"><rect width="320" height="320" transform="translate(480 439)" fill="#e6e6e6"/><g transform="translate(497.478 501.806) rotate(-21)"><g transform="translate(0 26.319)"><path d="M59.647,48.869a6.817,6.817,0,0,1-1.743-.226L5.057,34.491A6.9,6.9,0,0,1,.224,26.118L6.892,1.264a1.709,1.709,0,0,1,3.3.882L3.529,26.993a3.468,3.468,0,0,0,2.427,4.2L58.782,45.339a3.4,3.4,0,0,0,4.159-2.406l2.669-9.891a1.709,1.709,0,1,1,3.3.889l-2.666,9.877a6.826,6.826,0,0,1-6.6,5.062Z" transform="translate(0)" fill="#0c48aa"/></g><g transform="translate(13.669 0)"><path d="M61.518,54.683H6.835A6.842,6.842,0,0,1,0,47.847V6.835A6.842,6.842,0,0,1,6.835,0H61.518a6.842,6.842,0,0,1,6.835,6.835V47.847A6.842,6.842,0,0,1,61.518,54.683ZM6.835,3.418A3.423,3.423,0,0,0,3.418,6.835V47.847a3.423,3.423,0,0,0,3.418,3.418H61.518a3.423,3.423,0,0,0,3.418-3.418V6.835a3.423,3.423,0,0,0-3.418-3.418Z" transform="translate(0 0)" fill="#0c48aa"/></g><g transform="translate(23.922 10.253)"><path d="M6.835,13.671a6.835,6.835,0,1,1,6.835-6.835A6.842,6.842,0,0,1,6.835,13.671Zm0-10.253a3.418,3.418,0,1,0,3.418,3.418A3.423,3.423,0,0,0,6.835,3.418Z" transform="translate(0 0)" fill="#0c48aa"/></g><g transform="translate(13.907 18.968)"><path d="M1.71,32.058A1.707,1.707,0,0,1,.5,29.142L16.641,13a5.253,5.253,0,0,1,7.249,0L28.7,17.806,42,1.846A5.135,5.135,0,0,1,45.9,0h.038A5.123,5.123,0,0,1,49.83,1.787L67.7,22.642a1.709,1.709,0,1,1-2.594,2.225L47.236,4.012a1.691,1.691,0,0,0-1.3-.595,1.814,1.814,0,0,0-1.312.615l-14.5,17.4a1.7,1.7,0,0,1-1.237.612,1.645,1.645,0,0,1-1.285-.5l-6.128-6.128a1.755,1.755,0,0,0-2.416,0L2.916,31.559a1.7,1.7,0,0,1-1.206.5Z" transform="translate(0 0)" fill="#0c48aa"/></g></g><g transform="translate(601 682.6) rotate(-21)"><g transform="translate(0 26.319)"><path d="M59.647,48.869a6.817,6.817,0,0,1-1.743-.226L5.057,34.491A6.9,6.9,0,0,1,.224,26.118L6.892,1.264a1.709,1.709,0,0,1,3.3.882L3.529,26.993a3.468,3.468,0,0,0,2.427,4.2L58.782,45.339a3.4,3.4,0,0,0,4.159-2.406l2.669-9.891a1.709,1.709,0,1,1,3.3.889l-2.666,9.877a6.826,6.826,0,0,1-6.6,5.062Z" transform="translate(0)" fill="#0c48aa"/></g><g transform="translate(13.669 0)"><path d="M61.518,54.683H6.835A6.842,6.842,0,0,1,0,47.847V6.835A6.842,6.842,0,0,1,6.835,0H61.518a6.842,6.842,0,0,1,6.835,6.835V47.847A6.842,6.842,0,0,1,61.518,54.683ZM6.835,3.418A3.423,3.423,0,0,0,3.418,6.835V47.847a3.423,3.423,0,0,0,3.418,3.418H61.518a3.423,3.423,0,0,0,3.418-3.418V6.835a3.423,3.423,0,0,0-3.418-3.418Z" transform="translate(0 0)" fill="#0c48aa"/></g><g transform="translate(23.922 10.253)"><path d="M6.835,13.671a6.835,6.835,0,1,1,6.835-6.835A6.842,6.842,0,0,1,6.835,13.671Zm0-10.253a3.418,3.418,0,1,0,3.418,3.418A3.423,3.423,0,0,0,6.835,3.418Z" transform="translate(0 0)" fill="#0c48aa"/></g><g transform="translate(13.907 18.968)"><path d="M1.71,32.058A1.707,1.707,0,0,1,.5,29.142L16.641,13a5.253,5.253,0,0,1,7.249,0L28.7,17.806,42,1.846A5.135,5.135,0,0,1,45.9,0h.038A5.123,5.123,0,0,1,49.83,1.787L67.7,22.642a1.709,1.709,0,1,1-2.594,2.225L47.236,4.012a1.691,1.691,0,0,0-1.3-.595,1.814,1.814,0,0,0-1.312.615l-14.5,17.4a1.7,1.7,0,0,1-1.237.612,1.645,1.645,0,0,1-1.285-.5l-6.128-6.128a1.755,1.755,0,0,0-2.416,0L2.916,31.559a1.7,1.7,0,0,1-1.206.5Z" transform="translate(0 0)" fill="#0c48aa"/></g></g><g transform="translate(630.231 556.668) rotate(-30)"><path d="M79.246,52.831a5.283,5.283,0,0,1-5.283,5.283h-63.4a5.283,5.283,0,0,1-5.283-5.283v-31.7a5.283,5.283,0,0,1,5.283-5.283h6.192a15.849,15.849,0,0,0,11.2-4.644l4.385-4.374a5.283,5.283,0,0,1,3.725-1.548H48.451A5.282,5.282,0,0,1,52.186,6.83l4.375,4.375a15.849,15.849,0,0,0,11.211,4.644h6.192a5.283,5.283,0,0,1,5.283,5.283ZM10.566,10.566A10.566,10.566,0,0,0,0,21.132v31.7A10.566,10.566,0,0,0,10.566,63.4h63.4A10.566,10.566,0,0,0,84.529,52.831v-31.7A10.566,10.566,0,0,0,73.963,10.566H67.771A10.565,10.565,0,0,1,60.3,7.472L55.927,3.1A10.566,10.566,0,0,0,48.457,0H36.073A10.565,10.565,0,0,0,28.6,3.094L24.228,7.47a10.566,10.566,0,0,1-7.47,3.1Z" transform="translate(0 0)" fill="#0c48aa"/><path d="M31.7,31.7A13.208,13.208,0,1,1,44.906,18.491,13.208,13.208,0,0,1,31.7,31.7Zm0,5.283A18.491,18.491,0,1,0,13.208,18.491,18.491,18.491,0,0,0,31.7,36.982ZM5.283,7.925A2.642,2.642,0,1,1,2.642,5.283,2.642,2.642,0,0,1,5.283,7.925Z" transform="translate(10.566 15.849)" fill="#0c48aa"/></g></g></svg>