<svg xmlns="http://www.w3.org/2000/svg" width="320" height="320" viewBox="0 0 320 320"><g transform="translate(-480 -439)"><rect width="320" height="320" transform="translate(480 439)" fill="#e6e6e6"/><g transform="translate(698.543 576.562)"><path d="M42.369,9.357H57.078a.935.935,0,0,1,.718,1.534l-7.355,8.828a.935.935,0,0,1-1.436,0L41.65,10.891a.935.935,0,0,1,.718-1.534ZM1.219,16.839H15.928a.935.935,0,0,0,.718-1.534L9.292,6.476a.935.935,0,0,0-1.436,0L.5,15.3a.935.935,0,0,0,.718,1.534Z" transform="translate(-0.284 9.34)"/><path d="M24.218,5.735a18.662,18.662,0,0,0-14.429,6.8A1.87,1.87,0,1,1,6.9,10.157,22.453,22.453,0,0,1,46.353,20.7h-3.8A18.712,18.712,0,0,0,24.218,5.735ZM5.887,28.181a18.712,18.712,0,0,0,32.759,8.163,1.87,1.87,0,1,1,2.884,2.379A22.453,22.453,0,0,1,2.083,28.181Z" transform="translate(4.646 -2.002)" fill-rule="evenodd"/></g><g transform="translate(701.501 684.156)"><g transform="translate(0 0)"><path d="M54.518,48.171h0l-5.977-5.7a.813.813,0,0,0-.562-.225H36.816l1.8-2.248a.841.841,0,0,0,.186-.634.814.814,0,0,0-.671-.694l-3.783-.641a36.449,36.449,0,0,0-3.133-8.23.808.808,0,0,0-1.108-.326l-.007,0a.811.811,0,0,0-.32,1.088A33.318,33.318,0,0,1,32.87,38.89a.813.813,0,0,0,.663.647l2.961.5-9.34,11.693L18.331,36.962l4.177.707a.816.816,0,0,0,.839-.391.835.835,0,0,0,.111-.417A21,21,0,0,0,17.27,21.8a27.493,27.493,0,0,0-5.416-4.333,21.207,21.207,0,0,1,8.764,2.915,23.729,23.729,0,0,1,7.085,6.77.809.809,0,0,0,1.11.212l.008-.005a.808.808,0,0,0,.218-1.136,25.339,25.339,0,0,0-7.578-7.233A23.747,23.747,0,0,0,8.13,15.712a.831.831,0,0,0-.773.576A.814.814,0,0,0,7.873,17.3c2.916.991,13.56,6.992,13.949,18.608l-4.958-.84a.814.814,0,0,0-.9.514.835.835,0,0,0,.075.725l3.548,5.939H6.79a.814.814,0,0,0-.562.225l-5.976,5.7h0A.809.809,0,0,0,0,48.759V66.295a.814.814,0,0,0,.813.813H13.67a.809.809,0,0,0,.809-.809V66.29a.809.809,0,0,0-.809-.809H1.627V49.572H18.2v2.683a9.188,9.188,0,1,0,18.376.117v-2.8h16.57V65.481H17.457a.809.809,0,0,0-.809.809V66.3a.809.809,0,0,0,.809.809h36.5a.814.814,0,0,0,.813-.813V48.759A.81.81,0,0,0,54.518,48.171ZM5.976,47.946H2.845l3.132-2.989v2.989Zm41.191,0H35.76a.814.814,0,0,0-.813.813v3.614a7.561,7.561,0,0,1-15.122,0V48.759a.814.814,0,0,0-.813-.813H7.6V43.869H20.562l5.8,9.7a.814.814,0,0,0,.643.394l.055,0a.813.813,0,0,0,.635-.306l7.824-9.795h11.65Zm1.627,0V44.956l3.132,2.989Z" transform="translate(0 -15.696)"/></g></g><g transform="translate(500.708 479.185)"><path d="M28.192,64.384a8.2,8.2,0,0,0,8.1-7.022H48.772l-1.513,1.513,1.655,1.655,3.511-3.511a1.17,1.17,0,0,0,0-1.655l-3.511-3.511-1.655,1.655,1.513,1.513H36.29a8.188,8.188,0,1,0-8.1,9.362Zm0-14.043a5.851,5.851,0,1,1-5.851,5.851A5.858,5.858,0,0,1,28.192,50.341Z" transform="translate(78.635 147.955)"/><path d="M56.192,64.384A8.192,8.192,0,1,0,48,56.192,8.2,8.2,0,0,0,56.192,64.384Zm0-14.043a5.851,5.851,0,1,1-5.851,5.851A5.858,5.858,0,0,1,56.192,50.341Z" transform="translate(83.403 147.955)"/><path d="M33.108,25a10.377,10.377,0,0,0-10.251,8.888h-2.34a18.517,18.517,0,1,0,0,37.033h3.09l-1.915,1.915,2.095,2.095,4.444-4.444a1.481,1.481,0,0,0,0-2.095l-4.444-4.444-2.095,2.095,1.915,1.915h-3.09a15.554,15.554,0,0,1,0-31.108h2.34A10.364,10.364,0,1,0,33.108,25Zm0,17.776a7.407,7.407,0,1,1,7.407-7.407A7.415,7.415,0,0,1,33.108,42.776Z" transform="translate(10.938 83.673)"/><path d="M45.672,7.821l-2.5,2.5,2.285,2.285H26.605a12.373,12.373,0,1,0,0,3.535H45.458l-2.285,2.285,2.5,2.5,5.3-5.3a1.767,1.767,0,0,0,0-2.5Zm-31.3,15.39a8.838,8.838,0,1,1,8.838-8.838A8.848,8.848,0,0,1,14.373,23.211Z" transform="translate(27.669 -2)"/><path d="M67.449,23.65A14.645,14.645,0,0,0,52.82,9.022H46.29a8.192,8.192,0,1,0,0,2.341h6.53a12.288,12.288,0,1,1,0,24.576H34l1.513-1.513L33.854,32.77l-3.511,3.511a1.17,1.17,0,0,0,0,1.655l3.511,3.511,1.655-1.655L34,38.278H52.82A14.645,14.645,0,0,0,67.449,23.65ZM38.192,16.043a5.851,5.851,0,1,1,5.851-5.851A5.858,5.858,0,0,1,38.192,16.043Z" transform="translate(80.338 67.227)"/></g></g></svg>