<svg xmlns="http://www.w3.org/2000/svg" width="361.977" height="400.844" viewBox="0 0 361.977 400.844"><g transform="translate(-18.456 -201.576)"><g transform="translate(787.768 583.484) rotate(130)" opacity="0.99"><path d="M4025,1671.8s19.925-25.9,49.881-2.3,50.643.6,74.969,0" transform="matrix(0.966, 0.259, -0.259, 0.966, -3436.359, -2107.933)" fill="none" stroke="#000" stroke-linecap="round" stroke-width="5"/><path d="M4025,1671.8s19.925-25.9,49.881-2.3,50.643.6,74.969,0" transform="matrix(0.966, 0.259, -0.259, 0.966, -3441.536, -2088.614)" fill="none" stroke="#000" stroke-linecap="round" stroke-width="5"/><path d="M4025,1671.8s19.925-25.9,49.881-2.3,50.643.6,74.969,0" transform="matrix(0.966, 0.259, -0.259, 0.966, -3446.712, -2069.296)" fill="none" stroke="#000" stroke-linecap="round" stroke-width="5"/></g><path d="M229.589,7.068c22.979,8.754,38.846,33.922,35.563,59.636s-25.715,51.977-17.508,83.163,47.6,66.749,50.882,93.558c3.83,26.262-27.9,43.223-58.542,45.958-31.186,2.736-61.825-8.754-85.351-20.791-24.073-12.037-68.358,10.75-85.319.355C52.354,258.006,33.3,217.977,7.584,203.2c-25.168-14.225-8.246-50.459-17-75.08C-17.623,103.5-45.8,40.823-32.119,5.807S32.524-14.705,58.239-21.818c25.168-7.113,53.916-18.39,83.81,19.585C177.065,6.521,207.157-1.139,229.589,7.068Z" transform="matrix(-0.999, 0.052, -0.052, -0.999, 343.153, 557.738)" fill="#eaeaea" stroke="#707070" stroke-width="0"/><g transform="translate(-339.177 127.058) rotate(-40)"><path d="M4025,1671.8s19.925-25.9,49.881-2.3,50.643.6,74.969,0" transform="matrix(0.966, 0.259, -0.259, 0.966, -3436.359, -2107.933)" fill="none" stroke="#000" stroke-linecap="round" stroke-width="5"/><path d="M4025,1671.8s19.925-25.9,49.881-2.3,50.643.6,74.969,0" transform="matrix(0.966, 0.259, -0.259, 0.966, -3441.536, -2088.614)" fill="none" stroke="#000" stroke-linecap="round" stroke-width="5"/><path d="M4025,1671.8s19.925-25.9,49.881-2.3,50.643.6,74.969,0" transform="matrix(0.966, 0.259, -0.259, 0.966, -3446.712, -2069.296)" fill="none" stroke="#000" stroke-linecap="round" stroke-width="5"/></g><g transform="translate(116.841 208.4)"><path d="M496.821,184.291h-1.8V134.87a28.6,28.6,0,0,0-28.6-28.6H361.707a28.6,28.6,0,0,0-28.6,28.6V406a28.6,28.6,0,0,0,28.6,28.6H466.413a28.6,28.6,0,0,0,28.6-28.6V219.47h1.8Z" transform="translate(-317.944 -85.948)" fill="#3f3d56"/><path d="M494.8,140.607V411.336a21.446,21.446,0,0,1-7.844,16.549,19.854,19.854,0,0,1-1.691,1.243,21.264,21.264,0,0,1-11.827,3.57H368.228a21.117,21.117,0,0,1-5.062-.606,21.361,21.361,0,0,1-16.3-20.756V140.607a21.364,21.364,0,0,1,21.36-21.362h12.768a10.146,10.146,0,0,0,9.4,13.979h59.982a10.159,10.159,0,0,0,9.4-13.979h13.663A21.364,21.364,0,0,1,494.8,140.6Z" transform="translate(-323.816 -91.485)" fill="#fff"/><ellipse cx="2.486" cy="4.972" rx="2.486" ry="4.972" transform="translate(125.517 199.83)" fill="#f0eded"/><g transform="translate(57.159 144.6)" fill="#0c48aa" stroke="#0c48aa" stroke-width="3"><circle cx="40" cy="40" r="40" stroke="none"/><circle cx="40" cy="40" r="38.5" fill="none"/></g><path d="M28.535,12.35a.983.983,0,0,0-.983-.983H4.359L10.548,5.18A.985.985,0,1,0,9.156,3.788L1.289,11.654a.983.983,0,0,0,0,1.392l7.867,7.867a.985.985,0,1,0,1.392-1.392L4.359,13.334H27.552A.983.983,0,0,0,28.535,12.35Z" transform="translate(82.159 173.399)" fill="#fff" fill-rule="evenodd"/></g><g transform="translate(45.5 270.5)"><path d="M120.031,135.667h-13.52a.845.845,0,1,0,0,1.69h13.52a.845.845,0,0,0,0-1.69Z" transform="translate(-93.761 -120.382)"/><path d="M16.286,37.037a17.661,17.661,0,0,1-5.522-2,.845.845,0,0,0-.99.116,8.141,8.141,0,0,1-5.55,2.175A8.251,8.251,0,0,1,3.1,37.253a9.889,9.889,0,0,0,3.611-4.66.845.845,0,0,0-.177-.873A17.821,17.821,0,1,1,37.039,16.286a.845.845,0,0,0,1.663-.3A19.511,19.511,0,1,0,4.932,32.475a8.2,8.2,0,0,1-4.4,4.261.845.845,0,0,0,0,1.567A9.866,9.866,0,0,0,10.461,36.8a19.336,19.336,0,0,0,5.522,1.9.845.845,0,1,0,.3-1.662Z" transform="translate(0)"/><path d="M106.511,195.667a.845.845,0,0,0,0,1.69h9.556a.845.845,0,0,0,0-1.69Z" transform="translate(-93.761 -173.622)"/><path d="M120.876,166.512a.845.845,0,0,0-.845-.845h-13.52a.845.845,0,1,0,0,1.69h13.52A.845.845,0,0,0,120.876,166.512Z" transform="translate(-93.761 -147.002)"/><path d="M256.543,264.482a6.7,6.7,0,0,0-4.225,1.483,6.7,6.7,0,0,0-4.225-1.483,6.768,6.768,0,0,0-6.76,6.76c0,3.506,1.855,6.95,5.365,9.961a25.542,25.542,0,0,0,5.263,3.48.846.846,0,0,0,.714,0,25.544,25.544,0,0,0,5.263-3.48c3.51-3.011,5.365-6.455,5.365-9.961A6.768,6.768,0,0,0,256.543,264.482Zm-4.225,18.489c-1.747-.912-9.3-5.23-9.3-11.729a5.069,5.069,0,0,1,8.691-3.547.845.845,0,0,0,1.207,0,5.069,5.069,0,0,1,8.691,3.547C261.613,277.742,254.064,282.06,252.318,282.971Z" transform="translate(-214.143 -234.684)"/><path d="M204.159,202.4a8.2,8.2,0,0,1-4.4-4.261,19.479,19.479,0,1,0-5.529,4.322,9.866,9.866,0,0,0,9.933,1.505.845.845,0,0,0,0-1.566Zm-3.7.594a8.142,8.142,0,0,1-5.55-2.175.845.845,0,0,0-.99-.116,17.841,17.841,0,1,1,4.233-3.319.845.845,0,0,0-.177.873,9.888,9.888,0,0,0,3.611,4.66A8.233,8.233,0,0,1,200.462,203Z" transform="translate(-147.002 -147.001)"/></g><g transform="translate(322.747 398.5)"><path d="M120.031,135.667h-13.52a.845.845,0,1,0,0,1.69h13.52a.845.845,0,0,0,0-1.69Z" transform="translate(-93.761 -120.382)"/><path d="M16.286,37.037a17.661,17.661,0,0,1-5.522-2,.845.845,0,0,0-.99.116,8.141,8.141,0,0,1-5.55,2.175A8.251,8.251,0,0,1,3.1,37.253a9.889,9.889,0,0,0,3.611-4.66.845.845,0,0,0-.177-.873A17.821,17.821,0,1,1,37.039,16.286a.845.845,0,0,0,1.663-.3A19.511,19.511,0,1,0,4.932,32.475a8.2,8.2,0,0,1-4.4,4.261.845.845,0,0,0,0,1.567A9.866,9.866,0,0,0,10.461,36.8a19.336,19.336,0,0,0,5.522,1.9.845.845,0,1,0,.3-1.662Z" transform="translate(0)"/><path d="M106.511,195.667a.845.845,0,0,0,0,1.69h9.556a.845.845,0,0,0,0-1.69Z" transform="translate(-93.761 -173.622)"/><path d="M120.876,166.512a.845.845,0,0,0-.845-.845h-13.52a.845.845,0,1,0,0,1.69h13.52A.845.845,0,0,0,120.876,166.512Z" transform="translate(-93.761 -147.002)"/><path d="M256.543,264.482a6.7,6.7,0,0,0-4.225,1.483,6.7,6.7,0,0,0-4.225-1.483,6.768,6.768,0,0,0-6.76,6.76c0,3.506,1.855,6.95,5.365,9.961a25.542,25.542,0,0,0,5.263,3.48.846.846,0,0,0,.714,0,25.544,25.544,0,0,0,5.263-3.48c3.51-3.011,5.365-6.455,5.365-9.961A6.768,6.768,0,0,0,256.543,264.482Zm-4.225,18.489c-1.747-.912-9.3-5.23-9.3-11.729a5.069,5.069,0,0,1,8.691-3.547.845.845,0,0,0,1.207,0,5.069,5.069,0,0,1,8.691,3.547C261.613,277.742,254.064,282.06,252.318,282.971Z" transform="translate(-214.143 -234.684)"/><path d="M204.159,202.4a8.2,8.2,0,0,1-4.4-4.261,19.479,19.479,0,1,0-5.529,4.322,9.866,9.866,0,0,0,9.933,1.505.845.845,0,0,0,0-1.566Zm-3.7.594a8.142,8.142,0,0,1-5.55-2.175.845.845,0,0,0-.99-.116,17.841,17.841,0,1,1,4.233-3.319.845.845,0,0,0-.177.873,9.888,9.888,0,0,0,3.611,4.66A8.233,8.233,0,0,1,200.462,203Z" transform="translate(-147.002 -147.001)"/></g><g transform="translate(333.729 227.539)"><path d="M43.925,73.537h-30a.927.927,0,0,0,0,1.853h30a.927.927,0,0,1,.926.926V98.209a.927.927,0,0,1-.926.926H27.7a.926.926,0,0,0-.727.352l-3.737,4.734-3.963-4.753a.927.927,0,0,0-.712-.333H2.779a.927.927,0,0,1-.926-.926V76.316a.927.927,0,0,1,.926-.926H6.3a.927.927,0,0,0,0-1.853H2.779A2.782,2.782,0,0,0,0,76.316V98.209a2.782,2.782,0,0,0,2.779,2.779H18.131l4.417,5.3a.932.932,0,0,0,1.439-.019l4.166-5.278H43.925A2.782,2.782,0,0,0,46.7,98.209V76.316A2.782,2.782,0,0,0,43.925,73.537Z"/><path d="M54.933,161.84a.926.926,0,0,0,.168.877l1.8,2.178-.179,2.822c-.141,2.211,3.179-.137,3.895-.123s4.034,2.309,3.895.123l-.179-2.822,1.8-2.178a.939.939,0,0,0-.484-1.488l-2.739-.7L61.4,158.139a.939.939,0,0,0-1.565,0l-1.514,2.389-2.739.7A.926.926,0,0,0,54.933,161.84Zm4.206.391c.685-.175,1.136-1.322,1.481-1.866.339.535.8,1.692,1.481,1.866l1.679.43L62.673,164a.926.926,0,0,0-.211.65l.11,1.73-1.611-.639a.927.927,0,0,0-.683,0l-1.611.639.11-1.73a.926.926,0,0,0-.211-.65l-1.106-1.335Z" transform="translate(-49.802 -76.384)"/><path d="M200.61,161.84a.927.927,0,0,0-.651-.611l-2.739-.7-1.514-2.389a.939.939,0,0,0-1.565,0l-1.514,2.389-2.739.7a.926.926,0,0,0-.484,1.488l1.8,2.178-.179,2.822c-.141,2.211,3.179-.137,3.895-.123s4.034,2.309,3.895.123l-.179-2.822,1.8-2.178A.926.926,0,0,0,200.61,161.84ZM196.977,164a.926.926,0,0,0-.211.65l.11,1.73a6.152,6.152,0,0,0-1.953-.7,6.177,6.177,0,0,0-1.953.7l.11-1.73a.926.926,0,0,0-.211-.65l-1.106-1.335,1.679-.43c.685-.175,1.136-1.322,1.481-1.866.339.535.8,1.692,1.481,1.866l1.679.43Z" transform="translate(-171.663 -76.383)"/><path d="M334.989,161.84a.926.926,0,0,0-.651-.611l-2.739-.7-1.514-2.389a.939.939,0,0,0-1.565,0l-1.514,2.389-2.739.7a.939.939,0,0,0-.484,1.488l1.8,2.178-.179,2.822c-.141,2.211,3.177-.137,3.895-.123s4.034,2.309,3.895.123l-.179-2.822,1.8-2.178A.926.926,0,0,0,334.989,161.84ZM331.356,164a.926.926,0,0,0-.211.65l.11,1.73-1.611-.639a.927.927,0,0,0-.683,0l-1.611.639.11-1.73a.926.926,0,0,0-.211-.65l-1.106-1.335,1.679-.43c.685-.175,1.136-1.322,1.481-1.866.339.535.8,1.692,1.481,1.866l1.679.43Z" transform="translate(-293.6 -76.383)"/><path d="M99.837,75.237a.926.926,0,1,0-.35-1.1A.932.932,0,0,0,99.837,75.237Z" transform="translate(-90.216 -0.004)"/></g><g transform="translate(50.991 315.864)"><path d="M43.925,73.537h-30a.927.927,0,0,0,0,1.853h30a.927.927,0,0,1,.926.926V98.209a.927.927,0,0,1-.926.926H27.7a.926.926,0,0,0-.727.352l-3.737,4.734-3.963-4.753a.927.927,0,0,0-.712-.333H2.779a.927.927,0,0,1-.926-.926V76.316a.927.927,0,0,1,.926-.926H6.3a.927.927,0,0,0,0-1.853H2.779A2.782,2.782,0,0,0,0,76.316V98.209a2.782,2.782,0,0,0,2.779,2.779H18.131l4.417,5.3a.932.932,0,0,0,1.439-.019l4.166-5.278H43.925A2.782,2.782,0,0,0,46.7,98.209V76.316A2.782,2.782,0,0,0,43.925,73.537Z"/><path d="M54.933,161.84a.926.926,0,0,0,.168.877l1.8,2.178-.179,2.822c-.141,2.211,3.179-.137,3.895-.123s4.034,2.309,3.895.123l-.179-2.822,1.8-2.178a.939.939,0,0,0-.484-1.488l-2.739-.7L61.4,158.139a.939.939,0,0,0-1.565,0l-1.514,2.389-2.739.7A.926.926,0,0,0,54.933,161.84Zm4.206.391c.685-.175,1.136-1.322,1.481-1.866.339.535.8,1.692,1.481,1.866l1.679.43L62.673,164a.926.926,0,0,0-.211.65l.11,1.73-1.611-.639a.927.927,0,0,0-.683,0l-1.611.639.11-1.73a.926.926,0,0,0-.211-.65l-1.106-1.335Z" transform="translate(-49.802 -76.384)"/><path d="M200.61,161.84a.927.927,0,0,0-.651-.611l-2.739-.7-1.514-2.389a.939.939,0,0,0-1.565,0l-1.514,2.389-2.739.7a.926.926,0,0,0-.484,1.488l1.8,2.178-.179,2.822c-.141,2.211,3.179-.137,3.895-.123s4.034,2.309,3.895.123l-.179-2.822,1.8-2.178A.926.926,0,0,0,200.61,161.84ZM196.977,164a.926.926,0,0,0-.211.65l.11,1.73a6.152,6.152,0,0,0-1.953-.7,6.177,6.177,0,0,0-1.953.7l.11-1.73a.926.926,0,0,0-.211-.65l-1.106-1.335,1.679-.43c.685-.175,1.136-1.322,1.481-1.866.339.535.8,1.692,1.481,1.866l1.679.43Z" transform="translate(-171.663 -76.383)"/><path d="M334.989,161.84a.926.926,0,0,0-.651-.611l-2.739-.7-1.514-2.389a.939.939,0,0,0-1.565,0l-1.514,2.389-2.739.7a.939.939,0,0,0-.484,1.488l1.8,2.178-.179,2.822c-.141,2.211,3.177-.137,3.895-.123s4.034,2.309,3.895.123l-.179-2.822,1.8-2.178A.926.926,0,0,0,334.989,161.84ZM331.356,164a.926.926,0,0,0-.211.65l.11,1.73-1.611-.639a.927.927,0,0,0-.683,0l-1.611.639.11-1.73a.926.926,0,0,0-.211-.65l-1.106-1.335,1.679-.43c.685-.175,1.136-1.322,1.481-1.866.339.535.8,1.692,1.481,1.866l1.679.43Z" transform="translate(-293.6 -76.383)"/><path d="M99.837,75.237a.926.926,0,1,0-.35-1.1A.932.932,0,0,0,99.837,75.237Z" transform="translate(-90.216 -0.004)"/></g></g></svg>