<svg xmlns="http://www.w3.org/2000/svg" width="405.149" height="430.472" viewBox="0 0 405.149 430.472"><g transform="translate(-0.603 -311.576)"><g transform="translate(787.768 693.484) rotate(130)" opacity="0.073"><path d="M4025,1671.8s19.925-25.9,49.881-2.3,50.643.6,74.969,0" transform="matrix(0.966, 0.259, -0.259, 0.966, -3436.359, -2107.933)" fill="none" stroke="#000" stroke-linecap="round" stroke-width="5"/><path d="M4025,1671.8s19.925-25.9,49.881-2.3,50.643.6,74.969,0" transform="matrix(0.966, 0.259, -0.259, 0.966, -3441.536, -2088.614)" fill="none" stroke="#000" stroke-linecap="round" stroke-width="5"/><path d="M4025,1671.8s19.925-25.9,49.881-2.3,50.643.6,74.969,0" transform="matrix(0.966, 0.259, -0.259, 0.966, -3446.712, -2069.296)" fill="none" stroke="#000" stroke-linecap="round" stroke-width="5"/></g><path d="M229.589,7.068c22.979,8.754,38.846,33.922,35.563,59.636s-25.715,51.977-17.508,83.163,47.6,66.749,50.882,93.558c3.83,26.262-27.9,43.223-58.542,45.958-31.186,2.736-61.825-8.754-85.351-20.791-24.073-12.037-40.487-24.621-57.448-35.016C80.224,222.635,62.716,213.334,37,198.561c-25.168-14.225-59.089-33.922-67.843-58.542C-39.049,115.4-22.088,86.4-8.41,51.385s24.073-75.5,49.788-82.616c25.168-7.113,65.655,19.7,100.671,29C177.065,6.521,207.157-1.139,229.589,7.068Z" transform="translate(365.104 446.786) rotate(107)" fill="#eaeaea" stroke="#707070" stroke-width="0"/><g transform="translate(-339.177 237.058) rotate(-40)"><path d="M4025,1671.8s19.925-25.9,49.881-2.3,50.643.6,74.969,0" transform="matrix(0.966, 0.259, -0.259, 0.966, -3436.359, -2107.933)" fill="none" stroke="#000" stroke-linecap="round" stroke-width="5"/><path d="M4025,1671.8s19.925-25.9,49.881-2.3,50.643.6,74.969,0" transform="matrix(0.966, 0.259, -0.259, 0.966, -3441.536, -2088.614)" fill="none" stroke="#000" stroke-linecap="round" stroke-width="5"/><path d="M4025,1671.8s19.925-25.9,49.881-2.3,50.643.6,74.969,0" transform="matrix(0.966, 0.259, -0.259, 0.966, -3446.712, -2069.296)" fill="none" stroke="#000" stroke-linecap="round" stroke-width="5"/></g><g transform="translate(116.841 318.4)"><path d="M496.821,184.291h-1.8V134.87a28.6,28.6,0,0,0-28.6-28.6H361.707a28.6,28.6,0,0,0-28.6,28.6V406a28.6,28.6,0,0,0,28.6,28.6H466.413a28.6,28.6,0,0,0,28.6-28.6V219.47h1.8Z" transform="translate(-317.944 -85.948)" fill="#3f3d56"/><path d="M494.8,140.607V411.336a21.446,21.446,0,0,1-7.844,16.549,19.854,19.854,0,0,1-1.691,1.243,21.264,21.264,0,0,1-11.827,3.57H368.228a21.117,21.117,0,0,1-5.062-.606,21.361,21.361,0,0,1-16.3-20.756V140.607a21.364,21.364,0,0,1,21.36-21.362h12.768a10.146,10.146,0,0,0,9.4,13.979h59.982a10.159,10.159,0,0,0,9.4-13.979h13.663A21.364,21.364,0,0,1,494.8,140.6Z" transform="translate(-323.816 -91.485)" fill="#fff"/><ellipse cx="2.486" cy="4.972" rx="2.486" ry="4.972" transform="translate(125.517 199.83)" fill="#f0eded"/><g transform="translate(57.159 144.6)" fill="#0c48aa" stroke="#0c48aa" stroke-width="3"><circle cx="40" cy="40" r="40" stroke="none"/><circle cx="40" cy="40" r="38.5" fill="none"/></g><path d="M27.551,25.1a.983.983,0,0,0,.983-.983v-9.44a4.917,4.917,0,0,0-4.917-4.917H4.358l6.582-6.58A.985.985,0,1,0,9.548,1.788l-8.26,8.26a.983.983,0,0,0,0,1.392l7.867,7.867a.985.985,0,0,0,1.392-1.392L4.358,11.728h19.26a2.95,2.95,0,0,1,2.95,2.95v9.44A.983.983,0,0,0,27.551,25.1Z" transform="translate(82.16 171.499)" fill="#fff" fill-rule="evenodd"/></g><g transform="translate(39.282 399.771) rotate(-21)"><g transform="translate(0 20.92)"><path d="M42.878,44.831a4.9,4.9,0,0,1-1.253-.162L3.635,34.495A4.958,4.958,0,0,1,.161,28.476L4.955,10.61a1.228,1.228,0,1,1,2.373.634L2.537,29.1a2.493,2.493,0,0,0,1.744,3.019L42.256,42.293a2.446,2.446,0,0,0,2.99-1.73l1.919-7.11a1.229,1.229,0,1,1,2.373.639l-1.916,7.1a4.907,4.907,0,0,1-4.744,3.639Z" transform="translate(0 -9.701)" fill="#0c48aa"/></g><g transform="translate(9.826 2)"><path d="M48.222,41.309H8.914A4.919,4.919,0,0,1,4,36.395V6.914A4.919,4.919,0,0,1,8.914,2H48.222a4.919,4.919,0,0,1,4.914,4.914V36.395A4.919,4.919,0,0,1,48.222,41.309ZM8.914,4.457A2.461,2.461,0,0,0,6.457,6.914V36.395a2.461,2.461,0,0,0,2.457,2.457H48.222a2.461,2.461,0,0,0,2.457-2.457V6.914a2.461,2.461,0,0,0-2.457-2.457Z" transform="translate(-4 -2)" fill="#0c48aa"/></g><g transform="translate(17.197 9.37)"><path d="M11.914,14.827a4.914,4.914,0,1,1,4.914-4.914A4.919,4.919,0,0,1,11.914,14.827Zm0-7.37A2.457,2.457,0,1,0,14.37,9.914,2.461,2.461,0,0,0,11.914,7.457Z" transform="translate(-7 -5)" fill="#0c48aa"/></g><g transform="translate(9.998 15.635)"><path d="M5.3,30.595a1.227,1.227,0,0,1-.87-2.1l11.6-11.6a3.776,3.776,0,0,1,5.211,0L24.7,20.35,34.259,8.877A3.691,3.691,0,0,1,37.065,7.55h.027a3.683,3.683,0,0,1,2.8,1.285L52.739,23.826a1.228,1.228,0,1,1-1.865,1.6L38.026,10.434a1.215,1.215,0,0,0-.934-.427,1.3,1.3,0,0,0-.943.442L25.724,22.956a1.224,1.224,0,0,1-.889.44,1.182,1.182,0,0,1-.924-.359l-4.405-4.405a1.262,1.262,0,0,0-1.737,0l-11.6,11.6a1.224,1.224,0,0,1-.867.359Z" transform="translate(-4.07 -7.55)" fill="#0c48aa"/></g></g><path d="M0,9.125A6.125,6.125,0,0,1,6.125,3H29.094a6.125,6.125,0,0,1,6.073,5.323L44.691,4.09A3.063,3.063,0,0,1,49,6.886V29.739a3.063,3.063,0,0,1-4.306,2.8L35.167,28.3a6.125,6.125,0,0,1-6.073,5.323H6.125A6.125,6.125,0,0,1,0,27.5ZM35.219,24.973l10.719,4.765V6.886L35.219,11.652V24.973ZM6.125,6.063A3.062,3.062,0,0,0,3.063,9.125V27.5a3.062,3.062,0,0,0,3.062,3.063H29.094A3.062,3.062,0,0,0,32.156,27.5V9.125a3.063,3.063,0,0,0-3.062-3.062Z" transform="translate(322.57 373.356) rotate(16)" fill-rule="evenodd"/><g transform="translate(347.157 489.378)"><path d="M369.683,15.143a1.683,1.683,0,0,0,1.683-1.683V4.837a1.474,1.474,0,0,1,1.472-1.472h8.623a1.683,1.683,0,1,0,0-3.365h-8.623A4.843,4.843,0,0,0,368,4.837v8.623A1.683,1.683,0,0,0,369.683,15.143Z" transform="translate(-368)"/><path d="M13.461,15.143a1.683,1.683,0,0,0,1.683-1.683V4.837A4.843,4.843,0,0,0,10.306,0H1.683a1.683,1.683,0,0,0,0,3.365h8.623a1.474,1.474,0,0,1,1.472,1.472v8.623A1.683,1.683,0,0,0,13.461,15.143Z" transform="translate(38.699)"/><path d="M1.683,383.143h8.623a4.843,4.843,0,0,0,4.837-4.837v-8.623a1.683,1.683,0,1,0-3.365,0v8.623a1.474,1.474,0,0,1-1.472,1.472H1.683a1.683,1.683,0,0,0,0,3.365Z" transform="translate(38.699 -329.301)"/><path d="M372.837,383.143h8.623a1.683,1.683,0,0,0,0-3.365h-8.623a1.474,1.474,0,0,1-1.472-1.472v-8.623a1.683,1.683,0,1,0-3.365,0v8.623A4.843,4.843,0,0,0,372.837,383.143Z" transform="translate(-368 -329.301)"/><path d="M68.837,82.508h8.834a4.843,4.843,0,0,0,4.837-4.837V68.837A4.843,4.843,0,0,0,77.671,64H68.837A4.843,4.843,0,0,0,64,68.837v8.834A4.843,4.843,0,0,0,68.837,82.508Zm8.834-15.143a1.474,1.474,0,0,1,1.472,1.472v8.834a1.474,1.474,0,0,1-1.472,1.472H68.837a1.474,1.474,0,0,1-1.472-1.472V68.837a1.474,1.474,0,0,1,1.472-1.472Z" transform="translate(-35.396 -57.27)"/><path d="M68.837,290.508h8.834a4.843,4.843,0,0,0,4.837-4.837v-8.834A4.843,4.843,0,0,0,77.671,272H68.837A4.843,4.843,0,0,0,64,276.837v8.834A4.843,4.843,0,0,0,68.837,290.508Zm8.834-15.143a1.474,1.474,0,0,1,1.472,1.472v8.834a1.474,1.474,0,0,1-1.472,1.472H68.837a1.474,1.474,0,0,1-1.472-1.472v-8.834a1.474,1.474,0,0,1,1.472-1.472Z" transform="translate(-35.396 -243.396)"/><path d="M276.837,82.508h8.834a4.843,4.843,0,0,0,4.837-4.837V68.837A4.843,4.843,0,0,0,285.671,64h-8.834A4.843,4.843,0,0,0,272,68.837v8.834A4.843,4.843,0,0,0,276.837,82.508Zm8.834-15.143a1.474,1.474,0,0,1,1.472,1.472v8.834a1.474,1.474,0,0,1-1.472,1.472h-8.834a1.474,1.474,0,0,1-1.472-1.472V68.837a1.474,1.474,0,0,1,1.472-1.472Z" transform="translate(-265.27 -57.27)"/><path d="M274.734,280.413h4v-5.679A2.737,2.737,0,0,1,281.465,272h6.31a2.737,2.737,0,0,1,2.734,2.734v6.31a2.737,2.737,0,0,1-2.734,2.734H282.1v4a2.737,2.737,0,0,1-2.734,2.734h-4.627A2.737,2.737,0,0,1,272,287.774v-4.627A2.737,2.737,0,0,1,274.734,280.413Zm12.409-5.048H282.1v5.048h5.048Zm-11.778,11.778h3.365v-3.365h-3.365Z" transform="translate(-265.27 -243.396)"/><path d="M129.683,133.048h1.683a1.683,1.683,0,0,0,1.683-1.683v-1.683A1.683,1.683,0,0,0,131.365,128h-1.683A1.683,1.683,0,0,0,128,129.683v1.683A1.683,1.683,0,0,0,129.683,133.048Z" transform="translate(-92.666 -114.539)"/><path d="M337.683,133.048h1.683a1.683,1.683,0,0,0,1.683-1.683v-1.683A1.683,1.683,0,0,0,339.365,128h-1.683A1.683,1.683,0,0,0,336,129.683v1.683A1.683,1.683,0,0,0,337.683,133.048Z" transform="translate(-322.539 -114.539)"/><path d="M129.683,341.048h1.683a1.683,1.683,0,0,0,1.683-1.683v-1.683A1.683,1.683,0,0,0,131.365,336h-1.683A1.683,1.683,0,0,0,128,337.683v1.683A1.683,1.683,0,0,0,129.683,341.048Z" transform="translate(-92.666 -300.666)"/></g><g transform="translate(305.921 560.021)"><g transform="translate(0 15.696)"><path d="M56.3,49.235h0l-6.173-5.89a.84.84,0,0,0-.58-.232H38.022l1.855-2.322a.868.868,0,0,0,.192-.655.841.841,0,0,0-.693-.717l-3.907-.662a37.643,37.643,0,0,0-3.236-8.5.834.834,0,0,0-1.144-.337l-.008,0a.837.837,0,0,0-.33,1.123,34.409,34.409,0,0,1,3.2,8.6.84.84,0,0,0,.685.669l3.058.518L28.044,52.912,18.932,37.659l4.314.731a.842.842,0,0,0,.866-.4.862.862,0,0,0,.114-.431A21.682,21.682,0,0,0,17.836,22a28.393,28.393,0,0,0-5.593-4.475,21.9,21.9,0,0,1,9.051,3.01A24.506,24.506,0,0,1,28.61,27.53a.836.836,0,0,0,1.146.219l.008-.005a.834.834,0,0,0,.225-1.173A26.169,26.169,0,0,0,22.163,19.1,24.525,24.525,0,0,0,8.4,15.713a.858.858,0,0,0-.8.594.84.84,0,0,0,.533,1.041c3.011,1.024,14,7.221,14.406,19.217l-5.12-.867a.841.841,0,0,0-.926.531.863.863,0,0,0,.077.748l3.664,6.134H7.012a.84.84,0,0,0-.58.232L.261,49.235h0A.836.836,0,0,0,0,49.842v18.11a.84.84,0,0,0,.84.84H14.118a.835.835,0,0,0,.835-.836v-.009a.835.835,0,0,0-.835-.835H1.68V50.682H18.793v2.771a9.489,9.489,0,1,0,18.978.121V50.682H54.884v16.43H18.029a.835.835,0,0,0-.835.835v.009a.835.835,0,0,0,.835.836H55.724a.84.84,0,0,0,.84-.84V49.842A.837.837,0,0,0,56.3,49.235ZM6.172,49H2.938l3.234-3.087V49Zm42.54,0H36.931a.84.84,0,0,0-.84.84v3.732a7.809,7.809,0,1,1-15.618,0V49.842a.84.84,0,0,0-.84-.84H7.852v-4.21H21.235l5.987,10.022a.84.84,0,0,0,.664.407l.057,0a.84.84,0,0,0,.656-.316l8.08-10.116H48.712V49Zm1.68,0V45.915L53.627,49Z" transform="translate(0 -15.696)"/></g></g></g></svg>