<svg xmlns="http://www.w3.org/2000/svg" width="320" height="320" viewBox="0 0 320 320"><g transform="translate(-480 -439)"><rect width="320" height="320" transform="translate(480 439)" fill="#e6e6e6"/><g transform="matrix(0.921, 0.391, -0.391, 0.921, 698.423, 488.402)"><path d="M63.284,73.537H20.063a1.336,1.336,0,0,0,0,2.669h43.22a1.336,1.336,0,0,1,1.335,1.335v31.542a1.336,1.336,0,0,1-1.335,1.335H39.913a1.335,1.335,0,0,0-1.048.508l-5.384,6.821-5.71-6.848a1.335,1.335,0,0,0-1.025-.48H4a1.336,1.336,0,0,1-1.335-1.335V77.541A1.336,1.336,0,0,1,4,76.206H9.083a1.336,1.336,0,0,0,0-2.669H4a4.009,4.009,0,0,0-4,4v31.542a4.009,4.009,0,0,0,4,4H26.122l6.363,7.632a1.343,1.343,0,0,0,2.073-.028l6-7.6H63.284a4.009,4.009,0,0,0,4-4V77.541A4.009,4.009,0,0,0,63.284,73.537Z" transform="translate(0 -73.537)"/><path d="M54.953,163.657a1.334,1.334,0,0,0,.242,1.264l2.6,3.138-.258,4.066c-.2,3.185,4.579-.2,5.611-.177s5.812,3.326,5.611.177l-.258-4.066,2.6-3.138a1.353,1.353,0,0,0-.7-2.144l-3.947-1.011-2.181-3.441a1.353,1.353,0,0,0-2.255,0l-2.181,3.441-3.947,1.011A1.334,1.334,0,0,0,54.953,163.657Zm6.06.563c.987-.253,1.636-1.9,2.133-2.688.489.771,1.156,2.438,2.133,2.688l2.419.62-1.593,1.923a1.335,1.335,0,0,0-.3.936l.158,2.493-2.322-.921a1.336,1.336,0,0,0-.984,0l-2.321.921.158-2.493a1.335,1.335,0,0,0-.3-.936l-1.593-1.923Z" transform="translate(-47.561 -146.484)" fill="#ffb100"/><path d="M205.643,163.656a1.335,1.335,0,0,0-.938-.881l-3.947-1.011-2.181-3.441a1.353,1.353,0,0,0-2.255,0l-2.181,3.441-3.947,1.011a1.335,1.335,0,0,0-.7,2.145l2.6,3.138-.258,4.066c-.2,3.185,4.58-.2,5.611-.177s5.812,3.326,5.611.177l-.258-4.066,2.6-3.138A1.334,1.334,0,0,0,205.643,163.656Zm-5.234,3.106a1.335,1.335,0,0,0-.3.936l.158,2.493a8.863,8.863,0,0,0-2.814-1.015,8.9,8.9,0,0,0-2.814,1.015l.158-2.493a1.335,1.335,0,0,0-.3-.936l-1.593-1.923,2.419-.62c.987-.253,1.636-1.9,2.133-2.688.489.771,1.156,2.438,2.133,2.688l2.419.62Z" transform="translate(-163.939 -146.483)" fill="#ffb100"/><path d="M340.018,163.656a1.335,1.335,0,0,0-.938-.881l-3.947-1.011-2.181-3.441a1.353,1.353,0,0,0-2.255,0l-2.181,3.441-3.947,1.011a1.353,1.353,0,0,0-.7,2.144l2.6,3.138-.258,4.066c-.2,3.185,4.577-.2,5.611-.177s5.812,3.327,5.611.177l-.258-4.066,2.6-3.138A1.334,1.334,0,0,0,340.018,163.656Zm-5.234,3.106a1.335,1.335,0,0,0-.3.936l.158,2.493-2.321-.921a1.335,1.335,0,0,0-.984,0l-2.321.921.158-2.493a1.334,1.334,0,0,0-.3-.936l-1.593-1.923,2.419-.62c.987-.253,1.636-1.9,2.133-2.688.489.771,1.156,2.438,2.133,2.688l2.419.62Z" transform="translate(-280.388 -146.483)" fill="#ffb100"/><path d="M100.018,75.984a1.334,1.334,0,1,0-.5-1.589A1.343,1.343,0,0,0,100.018,75.984Z" transform="translate(-86.156 -73.541)"/></g><g transform="matrix(-0.921, 0.391, -0.391, -0.921, 610.362, 622.271)"><path d="M63.284,47.658H20.063a1.336,1.336,0,0,1,0-2.669h43.22a1.336,1.336,0,0,0,1.335-1.335V12.111a1.336,1.336,0,0,0-1.335-1.335H39.913a1.335,1.335,0,0,1-1.048-.508L33.482,3.448,27.772,10.3a1.335,1.335,0,0,1-1.025.48H4a1.336,1.336,0,0,0-1.335,1.335V43.653A1.336,1.336,0,0,0,4,44.988H9.083a1.336,1.336,0,0,1,0,2.669H4a4.009,4.009,0,0,1-4-4V12.111a4.009,4.009,0,0,1,4-4H26.122L32.485.475A1.343,1.343,0,0,1,34.558.5l6,7.6H63.284a4.009,4.009,0,0,1,4,4V43.653A4.009,4.009,0,0,1,63.284,47.658Z" transform="translate(0 0)"/><path d="M.065,9.834A1.334,1.334,0,0,1,.307,8.571l2.6-3.138L2.648,1.367c-.2-3.185,4.579.2,5.611.177s5.812-3.326,5.611-.177l-.258,4.066,2.6,3.138a1.353,1.353,0,0,1-.7,2.144l-3.947,1.011L9.386,15.167a1.353,1.353,0,0,1-2.255,0L4.95,11.726,1,10.715A1.334,1.334,0,0,1,.065,9.834Zm6.06-.563c.987.253,1.636,1.9,2.133,2.688.489-.771,1.156-2.438,2.133-2.688l2.419-.62L11.218,6.728a1.335,1.335,0,0,1-.3-.936L11.072,3.3,8.751,4.22a1.336,1.336,0,0,1-.984,0L5.445,3.3,5.6,5.792a1.335,1.335,0,0,1-.3.936L3.706,8.652Z" transform="translate(7.326 20.65)" fill="#ffb100"/><path d="M16.452,9.834a1.335,1.335,0,0,1-.938.881l-3.947,1.011L9.386,15.167a1.353,1.353,0,0,1-2.255,0L4.95,11.726,1,10.715a1.335,1.335,0,0,1-.7-2.145l2.6-3.138L2.647,1.367c-.2-3.185,4.58.2,5.611.177s5.812-3.326,5.611-.177l-.258,4.066,2.6,3.138A1.334,1.334,0,0,1,16.452,9.834ZM11.218,6.728a1.335,1.335,0,0,1-.3-.936L11.072,3.3A8.863,8.863,0,0,1,8.259,4.315,8.9,8.9,0,0,1,5.445,3.3L5.6,5.792a1.335,1.335,0,0,1-.3.936L3.706,8.652l2.419.62c.987.253,1.636,1.9,2.133,2.688.489-.771,1.156-2.438,2.133-2.688l2.419-.62Z" transform="translate(25.252 20.65)" fill="#ffb100"/><path d="M16.441,9.834a1.335,1.335,0,0,1-.938.881l-3.947,1.011L9.375,15.167a1.353,1.353,0,0,1-2.255,0L4.939,11.725.992,10.715A1.353,1.353,0,0,1,.3,8.57l2.6-3.138L2.636,1.367c-.2-3.185,4.577.2,5.611.177s5.812-3.327,5.611-.177L13.6,5.433,16.2,8.57A1.334,1.334,0,0,1,16.441,9.834ZM11.207,6.728a1.335,1.335,0,0,1-.3-.936L11.061,3.3,8.74,4.22a1.335,1.335,0,0,1-.984,0L5.434,3.3l.158,2.493a1.334,1.334,0,0,1-.3.936L3.695,8.651l2.419.62c.987.253,1.636,1.9,2.133,2.688.489-.771,1.156-2.438,2.133-2.688l2.419-.62Z" transform="translate(43.189 20.65)" fill="#ffb100"/><path d="M.591.226A1.343,1.343,0,0,1,2.617,1.69a1.345,1.345,0,0,1-1.22.977,1.346,1.346,0,0,1-1.31-.853A1.344,1.344,0,0,1,.591.226Z" transform="translate(13.271 44.988)"/></g><g transform="translate(536.642 465.668)"><path d="M122.321,135.667H106.646a.98.98,0,1,0,0,1.959h15.675a.98.98,0,1,0,0-1.959Z" transform="translate(-91.863 -117.946)"/><path d="M18.882,42.94a20.476,20.476,0,0,1-6.4-2.316.979.979,0,0,0-1.147.135A9.439,9.439,0,0,1,4.9,43.28a9.566,9.566,0,0,1-1.308-.089,11.466,11.466,0,0,0,4.187-5.4.98.98,0,0,0-.2-1.012,20.661,20.661,0,1,1,35.37-17.894.98.98,0,1,0,1.927-.352A22.621,22.621,0,1,0,5.718,37.651a9.5,9.5,0,0,1-5.106,4.94.98.98,0,0,0,0,1.816,11.439,11.439,0,0,0,11.516-1.745,22.417,22.417,0,0,0,6.4,2.2.98.98,0,1,0,.352-1.927Z" transform="translate(0)"/><path d="M106.646,195.667a.98.98,0,0,0,0,1.959h11.078a.98.98,0,0,0,0-1.959Z" transform="translate(-91.863 -170.108)"/><path d="M123.3,166.647a.98.98,0,0,0-.98-.98H106.646a.98.98,0,1,0,0,1.959h15.675A.98.98,0,0,0,123.3,166.647Z" transform="translate(-91.863 -144.027)"/><path d="M258.967,264.482a7.767,7.767,0,0,0-4.9,1.719,7.767,7.767,0,0,0-4.9-1.719,7.846,7.846,0,0,0-7.837,7.837c0,4.064,2.151,8.058,6.22,11.548a29.61,29.61,0,0,0,6.1,4.035.979.979,0,0,0,.827,0,29.61,29.61,0,0,0,6.1-4.035c4.069-3.491,6.22-7.484,6.22-11.548A7.846,7.846,0,0,0,258.967,264.482Zm-4.9,21.436c-2.026-1.057-10.776-6.063-10.776-13.6a5.877,5.877,0,0,1,10.077-4.112.98.98,0,0,0,1.4,0,5.877,5.877,0,0,1,10.077,4.112C264.845,279.856,256.094,284.862,254.069,285.918Z" transform="translate(-209.809 -229.934)"/><path d="M210.294,208.257a9.5,9.5,0,0,1-5.106-4.94,22.583,22.583,0,1,0-6.41,5.011,11.438,11.438,0,0,0,11.516,1.745.98.98,0,0,0,0-1.816Zm-4.286.689a9.44,9.44,0,0,1-6.434-2.522.979.979,0,0,0-1.147-.135,20.685,20.685,0,1,1,4.908-3.848.979.979,0,0,0-.2,1.012,11.464,11.464,0,0,0,4.187,5.4A9.544,9.544,0,0,1,206.008,208.946Z" transform="translate(-144.027 -144.026)"/></g><g transform="translate(653.202 626.668)"><path d="M122.321,135.667H106.646a.98.98,0,1,0,0,1.959h15.675a.98.98,0,1,0,0-1.959Z" transform="translate(-91.863 -117.946)"/><path d="M18.882,42.94a20.476,20.476,0,0,1-6.4-2.316.979.979,0,0,0-1.147.135A9.439,9.439,0,0,1,4.9,43.28a9.566,9.566,0,0,1-1.308-.089,11.466,11.466,0,0,0,4.187-5.4.98.98,0,0,0-.2-1.012,20.661,20.661,0,1,1,35.37-17.894.98.98,0,1,0,1.927-.352A22.621,22.621,0,1,0,5.718,37.651a9.5,9.5,0,0,1-5.106,4.94.98.98,0,0,0,0,1.816,11.439,11.439,0,0,0,11.516-1.745,22.417,22.417,0,0,0,6.4,2.2.98.98,0,1,0,.352-1.927Z" transform="translate(0)"/><path d="M106.646,195.667a.98.98,0,0,0,0,1.959h11.078a.98.98,0,0,0,0-1.959Z" transform="translate(-91.863 -170.108)"/><path d="M123.3,166.647a.98.98,0,0,0-.98-.98H106.646a.98.98,0,1,0,0,1.959h15.675A.98.98,0,0,0,123.3,166.647Z" transform="translate(-91.863 -144.027)"/><path d="M258.967,264.482a7.767,7.767,0,0,0-4.9,1.719,7.767,7.767,0,0,0-4.9-1.719,7.846,7.846,0,0,0-7.837,7.837c0,4.064,2.151,8.058,6.22,11.548a29.61,29.61,0,0,0,6.1,4.035.979.979,0,0,0,.827,0,29.61,29.61,0,0,0,6.1-4.035c4.069-3.491,6.22-7.484,6.22-11.548A7.846,7.846,0,0,0,258.967,264.482Zm-4.9,21.436c-2.026-1.057-10.776-6.063-10.776-13.6a5.877,5.877,0,0,1,10.077-4.112.98.98,0,0,0,1.4,0,5.877,5.877,0,0,1,10.077,4.112C264.845,279.856,256.094,284.862,254.069,285.918Z" transform="translate(-209.809 -229.934)"/><path d="M210.294,208.257a9.5,9.5,0,0,1-5.106-4.94,22.583,22.583,0,1,0-6.41,5.011,11.438,11.438,0,0,0,11.516,1.745.98.98,0,0,0,0-1.816Zm-4.286.689a9.44,9.44,0,0,1-6.434-2.522.979.979,0,0,0-1.147-.135,20.685,20.685,0,1,1,4.908-3.848.979.979,0,0,0-.2,1.012,11.464,11.464,0,0,0,4.187,5.4A9.544,9.544,0,0,1,206.008,208.946Z" transform="translate(-144.027 -144.026)"/></g></g></svg>