<svg xmlns="http://www.w3.org/2000/svg" width="462.434" height="461.959" viewBox="0 0 462.434 461.959"><g transform="translate(31.04 -185.299)"><g transform="translate(392.55 -66.71) rotate(14)" opacity="0.073"><path d="M4025,1671.8s19.925-25.9,49.881-2.3,50.643.6,74.969,0" transform="matrix(0.966, 0.259, -0.259, 0.966, -3436.359, -2107.933)" fill="none" stroke="#000" stroke-linecap="round" stroke-width="5"/><path d="M4025,1671.8s19.925-25.9,49.881-2.3,50.643.6,74.969,0" transform="matrix(0.966, 0.259, -0.259, 0.966, -3441.536, -2088.614)" fill="none" stroke="#000" stroke-linecap="round" stroke-width="5"/><path d="M4025,1671.8s19.925-25.9,49.881-2.3,50.643.6,74.969,0" transform="matrix(0.966, 0.259, -0.259, 0.966, -3446.712, -2069.296)" fill="none" stroke="#000" stroke-linecap="round" stroke-width="5"/></g><path d="M229.589,7.068c22.979,8.754,38.846,33.922,35.563,59.636s-25.715,51.977-17.508,83.163,47.6,66.749,50.882,93.558c3.83,26.262-27.9,43.223-58.542,45.958-31.186,2.736-61.825-8.754-85.351-20.791-24.073-12.037-40.487-24.621-57.448-35.016C80.224,222.635,62.716,213.334,37,198.561c-25.168-14.225-59.089-33.922-67.843-58.542C-39.049,115.4-22.088,86.4-8.41,51.385s24.073-75.5,49.788-82.616c25.168-7.113,65.655,19.7,100.671,29C177.065,6.521,207.157-1.139,229.589,7.068Z" transform="translate(15.198 412.816) rotate(-43)" fill="#eaeaea" stroke="#707070" stroke-width="0"/><g transform="translate(211.267 -274.999) rotate(21)"><path d="M4025,1671.8s19.925-25.9,49.881-2.3,50.643.6,74.969,0" transform="matrix(0.966, 0.259, -0.259, 0.966, -3436.359, -2107.933)" fill="none" stroke="#000" stroke-linecap="round" stroke-width="5"/><path d="M4025,1671.8s19.925-25.9,49.881-2.3,50.643.6,74.969,0" transform="matrix(0.966, 0.259, -0.259, 0.966, -3441.536, -2088.614)" fill="none" stroke="#000" stroke-linecap="round" stroke-width="5"/><path d="M4025,1671.8s19.925-25.9,49.881-2.3,50.643.6,74.969,0" transform="matrix(0.966, 0.259, -0.259, 0.966, -3446.712, -2069.296)" fill="none" stroke="#000" stroke-linecap="round" stroke-width="5"/></g><g transform="translate(96.841 198.4)"><path d="M496.821,184.291h-1.8V134.87a28.6,28.6,0,0,0-28.6-28.6H361.707a28.6,28.6,0,0,0-28.6,28.6V406a28.6,28.6,0,0,0,28.6,28.6H466.413a28.6,28.6,0,0,0,28.6-28.6V219.47h1.8Z" transform="translate(-317.944 -85.948)" fill="#3f3d56"/><path d="M494.8,140.607V411.336a21.446,21.446,0,0,1-7.844,16.549,19.854,19.854,0,0,1-1.691,1.243,21.264,21.264,0,0,1-11.827,3.57H368.228a21.117,21.117,0,0,1-5.062-.606,21.361,21.361,0,0,1-16.3-20.756V140.607a21.364,21.364,0,0,1,21.36-21.362h12.768a10.146,10.146,0,0,0,9.4,13.979h59.982a10.159,10.159,0,0,0,9.4-13.979h13.663A21.364,21.364,0,0,1,494.8,140.6Z" transform="translate(-323.816 -91.485)" fill="#fff"/><ellipse cx="2.486" cy="4.972" rx="2.486" ry="4.972" transform="translate(125.517 199.83)" fill="#f0eded"/><g transform="translate(57.159 164.6)" fill="#0c48aa" stroke="#0c48aa" stroke-width="3"><circle cx="40" cy="40" r="40" stroke="none"/><circle cx="40" cy="40" r="38.5" fill="none"/></g><g transform="translate(83.624 191.841)"><path d="M.846,9.9a.846.846,0,0,1,.846.846v4.23a1.692,1.692,0,0,0,1.692,1.692h20.3a1.692,1.692,0,0,0,1.692-1.692v-4.23a.846.846,0,1,1,1.692,0v4.23a3.384,3.384,0,0,1-3.384,3.384H3.384A3.384,3.384,0,0,1,0,14.976v-4.23A.846.846,0,0,1,.846,9.9Z" transform="translate(0 6.158)" fill="#fff"/><path d="M9.823,19.364a.846.846,0,0,0,1.2,0L16.1,14.288a.847.847,0,1,0-1.2-1.2l-3.631,3.632V1.846a.846.846,0,1,0-1.692,0V16.723L5.945,13.09a.847.847,0,1,0-1.2,1.2Z" transform="translate(3.113 0)" fill="#fff"/></g></g><path d="M4315.891,2309.555h44.686v63.58H4297v-43.542" transform="translate(4647.576 2670.69) rotate(180)" fill="none" stroke="#000" stroke-width="3"/><g transform="translate(335 343)" fill="none" stroke="#000" stroke-width="3"><circle cx="26" cy="26" r="26" stroke="none"/><circle cx="26" cy="26" r="24.5" fill="none"/></g><g transform="translate(299 310)"><path d="M369.211,10.9a1.211,1.211,0,0,0,1.211-1.211V3.482a1.061,1.061,0,0,1,1.06-1.06h6.207a1.211,1.211,0,1,0,0-2.422h-6.207A3.486,3.486,0,0,0,368,3.482V9.689A1.211,1.211,0,0,0,369.211,10.9Z" transform="translate(-368)"/><path d="M9.689,10.9A1.211,1.211,0,0,0,10.9,9.689V3.482A3.486,3.486,0,0,0,7.418,0H1.211a1.211,1.211,0,0,0,0,2.422H7.418a1.061,1.061,0,0,1,1.06,1.06V9.689A1.211,1.211,0,0,0,9.689,10.9Z" transform="translate(27.855)"/><path d="M1.211,378.9H7.418a3.486,3.486,0,0,0,3.482-3.482v-6.207a1.211,1.211,0,1,0-2.422,0v6.207a1.061,1.061,0,0,1-1.06,1.06H1.211a1.211,1.211,0,0,0,0,2.422Z" transform="translate(27.855 -340.145)"/><path d="M371.482,378.9h6.207a1.211,1.211,0,1,0,0-2.422h-6.207a1.061,1.061,0,0,1-1.06-1.06v-6.207a1.211,1.211,0,1,0-2.422,0v6.207A3.486,3.486,0,0,0,371.482,378.9Z" transform="translate(-368 -340.145)"/><path d="M67.482,77.322H73.84a3.486,3.486,0,0,0,3.482-3.482V67.482A3.486,3.486,0,0,0,73.84,64H67.482A3.486,3.486,0,0,0,64,67.482V73.84A3.486,3.486,0,0,0,67.482,77.322Zm6.358-10.9a1.061,1.061,0,0,1,1.06,1.06V73.84a1.061,1.061,0,0,1-1.06,1.06H67.482a1.061,1.061,0,0,1-1.06-1.06V67.482a1.061,1.061,0,0,1,1.06-1.06Z" transform="translate(-43.412 -59.156)"/><path d="M67.482,285.322H73.84a3.486,3.486,0,0,0,3.482-3.482v-6.358A3.486,3.486,0,0,0,73.84,272H67.482A3.486,3.486,0,0,0,64,275.482v6.358A3.486,3.486,0,0,0,67.482,285.322Zm6.358-10.9a1.061,1.061,0,0,1,1.06,1.06v6.358a1.061,1.061,0,0,1-1.06,1.06H67.482a1.061,1.061,0,0,1-1.06-1.06v-6.358a1.061,1.061,0,0,1,1.06-1.06Z" transform="translate(-43.412 -251.412)"/><path d="M275.482,77.322h6.358a3.486,3.486,0,0,0,3.482-3.482V67.482A3.486,3.486,0,0,0,281.84,64h-6.358A3.486,3.486,0,0,0,272,67.482V73.84A3.486,3.486,0,0,0,275.482,77.322Zm6.358-10.9a1.061,1.061,0,0,1,1.06,1.06V73.84a1.061,1.061,0,0,1-1.06,1.06h-6.358a1.061,1.061,0,0,1-1.06-1.06V67.482a1.061,1.061,0,0,1,1.06-1.06Z" transform="translate(-267.156 -59.156)"/><path d="M273.968,278.055h2.876v-4.087A1.97,1.97,0,0,1,278.812,272h4.542a1.97,1.97,0,0,1,1.968,1.968v4.542a1.97,1.97,0,0,1-1.968,1.968h-4.087v2.876a1.97,1.97,0,0,1-1.968,1.968h-3.33A1.97,1.97,0,0,1,272,283.354v-3.33A1.97,1.97,0,0,1,273.968,278.055Zm8.932-3.633h-3.633v3.633H282.9Zm-8.477,8.477h2.422v-2.422h-2.422Z" transform="translate(-267.156 -251.412)"/><path d="M129.211,131.633h1.211a1.211,1.211,0,0,0,1.211-1.211v-1.211A1.211,1.211,0,0,0,130.422,128h-1.211A1.211,1.211,0,0,0,128,129.211v1.211A1.211,1.211,0,0,0,129.211,131.633Z" transform="translate(-102.568 -118.311)"/><path d="M337.211,131.633h1.211a1.211,1.211,0,0,0,1.211-1.211v-1.211A1.211,1.211,0,0,0,338.422,128h-1.211A1.211,1.211,0,0,0,336,129.211v1.211A1.211,1.211,0,0,0,337.211,131.633Z" transform="translate(-326.311 -118.311)"/><path d="M129.211,339.633h1.211a1.211,1.211,0,0,0,1.211-1.211v-1.211A1.211,1.211,0,0,0,130.422,336h-1.211A1.211,1.211,0,0,0,128,337.211v1.211A1.211,1.211,0,0,0,129.211,339.633Z" transform="translate(-102.568 -310.568)"/></g><path d="M8.278,1a.531.531,0,0,1,.531.531V14.052l3.34-3.341a.532.532,0,1,1,.752.752L8.654,15.71a.531.531,0,0,1-.752,0L3.655,11.463a.532.532,0,0,1,.752-.752l3.34,3.341V1.531A.531.531,0,0,1,8.278,1Z" transform="translate(353.5 360.135)" stroke="#000" stroke-width="1" fill-rule="evenodd"/><g transform="translate(173 260)"><path d="M369.211,10.9a1.211,1.211,0,0,0,1.211-1.211V3.482a1.061,1.061,0,0,1,1.06-1.06h6.207a1.211,1.211,0,1,0,0-2.422h-6.207A3.486,3.486,0,0,0,368,3.482V9.689A1.211,1.211,0,0,0,369.211,10.9Z" transform="translate(-368)"/><path d="M9.689,10.9A1.211,1.211,0,0,0,10.9,9.689V3.482A3.486,3.486,0,0,0,7.418,0H1.211a1.211,1.211,0,0,0,0,2.422H7.418a1.061,1.061,0,0,1,1.06,1.06V9.689A1.211,1.211,0,0,0,9.689,10.9Z" transform="translate(27.855)"/><path d="M1.211,378.9H7.418a3.486,3.486,0,0,0,3.482-3.482v-6.207a1.211,1.211,0,1,0-2.422,0v6.207a1.061,1.061,0,0,1-1.06,1.06H1.211a1.211,1.211,0,0,0,0,2.422Z" transform="translate(27.855 -340.145)"/><path d="M371.482,378.9h6.207a1.211,1.211,0,1,0,0-2.422h-6.207a1.061,1.061,0,0,1-1.06-1.06v-6.207a1.211,1.211,0,1,0-2.422,0v6.207A3.486,3.486,0,0,0,371.482,378.9Z" transform="translate(-368 -340.145)"/><path d="M67.482,77.322H73.84a3.486,3.486,0,0,0,3.482-3.482V67.482A3.486,3.486,0,0,0,73.84,64H67.482A3.486,3.486,0,0,0,64,67.482V73.84A3.486,3.486,0,0,0,67.482,77.322Zm6.358-10.9a1.061,1.061,0,0,1,1.06,1.06V73.84a1.061,1.061,0,0,1-1.06,1.06H67.482a1.061,1.061,0,0,1-1.06-1.06V67.482a1.061,1.061,0,0,1,1.06-1.06Z" transform="translate(-43.412 -59.156)"/><path d="M67.482,285.322H73.84a3.486,3.486,0,0,0,3.482-3.482v-6.358A3.486,3.486,0,0,0,73.84,272H67.482A3.486,3.486,0,0,0,64,275.482v6.358A3.486,3.486,0,0,0,67.482,285.322Zm6.358-10.9a1.061,1.061,0,0,1,1.06,1.06v6.358a1.061,1.061,0,0,1-1.06,1.06H67.482a1.061,1.061,0,0,1-1.06-1.06v-6.358a1.061,1.061,0,0,1,1.06-1.06Z" transform="translate(-43.412 -251.412)"/><path d="M275.482,77.322h6.358a3.486,3.486,0,0,0,3.482-3.482V67.482A3.486,3.486,0,0,0,281.84,64h-6.358A3.486,3.486,0,0,0,272,67.482V73.84A3.486,3.486,0,0,0,275.482,77.322Zm6.358-10.9a1.061,1.061,0,0,1,1.06,1.06V73.84a1.061,1.061,0,0,1-1.06,1.06h-6.358a1.061,1.061,0,0,1-1.06-1.06V67.482a1.061,1.061,0,0,1,1.06-1.06Z" transform="translate(-267.156 -59.156)"/><path d="M273.968,278.055h2.876v-4.087A1.97,1.97,0,0,1,278.812,272h4.542a1.97,1.97,0,0,1,1.968,1.968v4.542a1.97,1.97,0,0,1-1.968,1.968h-4.087v2.876a1.97,1.97,0,0,1-1.968,1.968h-3.33A1.97,1.97,0,0,1,272,283.354v-3.33A1.97,1.97,0,0,1,273.968,278.055Zm8.932-3.633h-3.633v3.633H282.9Zm-8.477,8.477h2.422v-2.422h-2.422Z" transform="translate(-267.156 -251.412)"/><path d="M129.211,131.633h1.211a1.211,1.211,0,0,0,1.211-1.211v-1.211A1.211,1.211,0,0,0,130.422,128h-1.211A1.211,1.211,0,0,0,128,129.211v1.211A1.211,1.211,0,0,0,129.211,131.633Z" transform="translate(-102.568 -118.311)"/><path d="M337.211,131.633h1.211a1.211,1.211,0,0,0,1.211-1.211v-1.211A1.211,1.211,0,0,0,338.422,128h-1.211A1.211,1.211,0,0,0,336,129.211v1.211A1.211,1.211,0,0,0,337.211,131.633Z" transform="translate(-326.311 -118.311)"/><path d="M129.211,339.633h1.211a1.211,1.211,0,0,0,1.211-1.211v-1.211A1.211,1.211,0,0,0,130.422,336h-1.211A1.211,1.211,0,0,0,128,337.211v1.211A1.211,1.211,0,0,0,129.211,339.633Z" transform="translate(-102.568 -310.568)"/></g></g></svg>