<svg xmlns="http://www.w3.org/2000/svg" width="405.149" height="454.045" viewBox="0 0 405.149 454.045"><g transform="translate(-0.603 -168.003)"><g transform="translate(787.768 573.484) rotate(130)" opacity="0.073"><path d="M4025,1671.8s19.925-25.9,49.881-2.3,50.643.6,74.969,0" transform="matrix(0.966, 0.259, -0.259, 0.966, -3436.359, -2107.933)" fill="none" stroke="#000" stroke-linecap="round" stroke-width="5"/><path d="M4025,1671.8s19.925-25.9,49.881-2.3,50.643.6,74.969,0" transform="matrix(0.966, 0.259, -0.259, 0.966, -3441.536, -2088.614)" fill="none" stroke="#000" stroke-linecap="round" stroke-width="5"/><path d="M4025,1671.8s19.925-25.9,49.881-2.3,50.643.6,74.969,0" transform="matrix(0.966, 0.259, -0.259, 0.966, -3446.712, -2069.296)" fill="none" stroke="#000" stroke-linecap="round" stroke-width="5"/></g><path d="M229.589,7.068c22.979,8.754,38.846,33.922,35.563,59.636s-25.715,51.977-17.508,83.163,47.6,66.749,50.882,93.558c3.83,26.262-27.9,43.223-58.542,45.958-31.186,2.736-61.825-8.754-85.351-20.791-24.073-12.037-40.487-24.621-57.448-35.016C80.224,222.635,62.716,213.334,37,198.561c-25.168-14.225-59.089-33.922-67.843-58.542C-39.049,115.4-22.088,86.4-8.41,51.385s24.073-75.5,49.788-82.616c25.168-7.113,65.655,19.7,100.671,29C177.065,6.521,207.157-1.139,229.589,7.068Z" transform="translate(365.104 326.786) rotate(107)" fill="#def2ff" stroke="#707070" stroke-width="0"/><g transform="translate(-339.177 117.058) rotate(-40)"><path d="M4025,1671.8s19.925-25.9,49.881-2.3,50.643.6,74.969,0" transform="matrix(0.966, 0.259, -0.259, 0.966, -3436.359, -2107.933)" fill="none" stroke="#000" stroke-linecap="round" stroke-width="5"/><path d="M4025,1671.8s19.925-25.9,49.881-2.3,50.643.6,74.969,0" transform="matrix(0.966, 0.259, -0.259, 0.966, -3441.536, -2088.614)" fill="none" stroke="#000" stroke-linecap="round" stroke-width="5"/><path d="M4025,1671.8s19.925-25.9,49.881-2.3,50.643.6,74.969,0" transform="matrix(0.966, 0.259, -0.259, 0.966, -3446.712, -2069.296)" fill="none" stroke="#000" stroke-linecap="round" stroke-width="5"/></g><g transform="translate(116.841 198.4)"><path d="M496.821,184.291h-1.8V134.87a28.6,28.6,0,0,0-28.6-28.6H361.707a28.6,28.6,0,0,0-28.6,28.6V406a28.6,28.6,0,0,0,28.6,28.6H466.413a28.6,28.6,0,0,0,28.6-28.6V219.47h1.8Z" transform="translate(-317.944 -85.948)" fill="#3f3d56"/><path d="M494.8,140.607V411.336a21.446,21.446,0,0,1-7.844,16.549,19.854,19.854,0,0,1-1.691,1.243,21.264,21.264,0,0,1-11.827,3.57H368.228a21.117,21.117,0,0,1-5.062-.606,21.361,21.361,0,0,1-16.3-20.756V140.607a21.364,21.364,0,0,1,21.36-21.362h12.768a10.146,10.146,0,0,0,9.4,13.979h59.982a10.159,10.159,0,0,0,9.4-13.979h13.663A21.364,21.364,0,0,1,494.8,140.6Z" transform="translate(-323.816 -91.485)" fill="#fff"/><ellipse cx="2.486" cy="4.972" rx="2.486" ry="4.972" transform="translate(125.517 199.83)" fill="#f0eded"/><g transform="translate(57.159 144.6)" fill="#0c48aa" stroke="#0c48aa" stroke-width="3"><circle cx="40" cy="40" r="40" stroke="none"/><circle cx="40" cy="40" r="38.5" fill="none"/></g><path d="M1,12.351a.983.983,0,0,1,.983-.983H25.176L18.987,5.18A.985.985,0,1,1,20.38,3.788l7.867,7.867a.983.983,0,0,1,0,1.392L20.38,20.914a.985.985,0,1,1-1.392-1.392l6.189-6.187H1.983A.983.983,0,0,1,1,12.351Z" transform="translate(82.159 173.399)" fill="#fff" fill-rule="evenodd"/></g><g transform="translate(314.075 306.052) rotate(-21)"><g transform="translate(0 20.92)"><path d="M42.878,44.831a4.9,4.9,0,0,1-1.253-.162L3.635,34.495A4.958,4.958,0,0,1,.161,28.476L4.955,10.61a1.228,1.228,0,1,1,2.373.634L2.537,29.1a2.493,2.493,0,0,0,1.744,3.019L42.256,42.293a2.446,2.446,0,0,0,2.99-1.73l1.919-7.11a1.229,1.229,0,1,1,2.373.639l-1.916,7.1a4.907,4.907,0,0,1-4.744,3.639Z" transform="translate(0 -9.701)" fill="#0c48aa"/></g><g transform="translate(9.826 2)"><path d="M48.222,41.309H8.914A4.919,4.919,0,0,1,4,36.395V6.914A4.919,4.919,0,0,1,8.914,2H48.222a4.919,4.919,0,0,1,4.914,4.914V36.395A4.919,4.919,0,0,1,48.222,41.309ZM8.914,4.457A2.461,2.461,0,0,0,6.457,6.914V36.395a2.461,2.461,0,0,0,2.457,2.457H48.222a2.461,2.461,0,0,0,2.457-2.457V6.914a2.461,2.461,0,0,0-2.457-2.457Z" transform="translate(-4 -2)" fill="#0c48aa"/></g><g transform="translate(17.197 9.37)"><path d="M11.914,14.827a4.914,4.914,0,1,1,4.914-4.914A4.919,4.919,0,0,1,11.914,14.827Zm0-7.37A2.457,2.457,0,1,0,14.37,9.914,2.461,2.461,0,0,0,11.914,7.457Z" transform="translate(-7 -5)" fill="#0c48aa"/></g><g transform="translate(9.998 15.635)"><path d="M5.3,30.595a1.227,1.227,0,0,1-.87-2.1l11.6-11.6a3.776,3.776,0,0,1,5.211,0L24.7,20.35,34.259,8.877A3.691,3.691,0,0,1,37.065,7.55h.027a3.683,3.683,0,0,1,2.8,1.285L52.739,23.826a1.228,1.228,0,1,1-1.865,1.6L38.026,10.434a1.215,1.215,0,0,0-.934-.427,1.3,1.3,0,0,0-.943.442L25.724,22.956a1.224,1.224,0,0,1-.889.44,1.182,1.182,0,0,1-.924-.359l-4.405-4.405a1.262,1.262,0,0,0-1.737,0l-11.6,11.6a1.224,1.224,0,0,1-.867.359Z" transform="translate(-4.07 -7.55)" fill="#0c48aa"/></g></g><g transform="translate(39.283 229.772) rotate(-21)"><g transform="translate(0 20.92)"><path d="M42.878,44.831a4.9,4.9,0,0,1-1.253-.162L3.635,34.495A4.958,4.958,0,0,1,.161,28.476L4.955,10.61a1.228,1.228,0,1,1,2.373.634L2.537,29.1a2.493,2.493,0,0,0,1.744,3.019L42.256,42.293a2.446,2.446,0,0,0,2.99-1.73l1.919-7.11a1.229,1.229,0,1,1,2.373.639l-1.916,7.1a4.907,4.907,0,0,1-4.744,3.639Z" transform="translate(0 -9.701)" fill="#0c48aa"/></g><g transform="translate(9.826 2)"><path d="M48.222,41.309H8.914A4.919,4.919,0,0,1,4,36.395V6.914A4.919,4.919,0,0,1,8.914,2H48.222a4.919,4.919,0,0,1,4.914,4.914V36.395A4.919,4.919,0,0,1,48.222,41.309ZM8.914,4.457A2.461,2.461,0,0,0,6.457,6.914V36.395a2.461,2.461,0,0,0,2.457,2.457H48.222a2.461,2.461,0,0,0,2.457-2.457V6.914a2.461,2.461,0,0,0-2.457-2.457Z" transform="translate(-4 -2)" fill="#0c48aa"/></g><g transform="translate(17.197 9.37)"><path d="M11.914,14.827a4.914,4.914,0,1,1,4.914-4.914A4.919,4.919,0,0,1,11.914,14.827Zm0-7.37A2.457,2.457,0,1,0,14.37,9.914,2.461,2.461,0,0,0,11.914,7.457Z" transform="translate(-7 -5)" fill="#0c48aa"/></g><g transform="translate(9.998 15.635)"><path d="M5.3,30.595a1.227,1.227,0,0,1-.87-2.1l11.6-11.6a3.776,3.776,0,0,1,5.211,0L24.7,20.35,34.259,8.877A3.691,3.691,0,0,1,37.065,7.55h.027a3.683,3.683,0,0,1,2.8,1.285L52.739,23.826a1.228,1.228,0,1,1-1.865,1.6L38.026,10.434a1.215,1.215,0,0,0-.934-.427,1.3,1.3,0,0,0-.943.442L25.724,22.956a1.224,1.224,0,0,1-.889.44,1.182,1.182,0,0,1-.924-.359l-4.405-4.405a1.262,1.262,0,0,0-1.737,0l-11.6,11.6a1.224,1.224,0,0,1-.867.359Z" transform="translate(-4.07 -7.55)" fill="#0c48aa"/></g></g><path d="M0,9.125A6.125,6.125,0,0,1,6.125,3H29.094a6.125,6.125,0,0,1,6.073,5.323L44.691,4.09A3.063,3.063,0,0,1,49,6.886V29.739a3.063,3.063,0,0,1-4.306,2.8L35.167,28.3a6.125,6.125,0,0,1-6.073,5.323H6.125A6.125,6.125,0,0,1,0,27.5ZM35.219,24.973l10.719,4.765V6.886L35.219,11.652V24.973ZM6.125,6.063A3.062,3.062,0,0,0,3.063,9.125V27.5a3.062,3.062,0,0,0,3.062,3.063H29.094A3.062,3.062,0,0,0,32.156,27.5V9.125a3.063,3.063,0,0,0-3.062-3.062Z" transform="translate(314.725 460.116) rotate(16)" fill-rule="evenodd"/><path d="M0,9.125A6.125,6.125,0,0,1,6.125,3H29.094a6.125,6.125,0,0,1,6.073,5.323L44.691,4.09A3.063,3.063,0,0,1,49,6.886V29.739a3.063,3.063,0,0,1-4.306,2.8L35.167,28.3a6.125,6.125,0,0,1-6.073,5.323H6.125A6.125,6.125,0,0,1,0,27.5ZM35.219,24.973l10.719,4.765V6.886L35.219,11.652V24.973ZM6.125,6.063A3.062,3.062,0,0,0,3.063,9.125V27.5a3.062,3.062,0,0,0,3.062,3.063H29.094A3.062,3.062,0,0,0,32.156,27.5V9.125a3.063,3.063,0,0,0-3.062-3.062Z" transform="translate(63.725 358.531) rotate(16)" fill-rule="evenodd"/><g transform="translate(317.355 168.003)"><g transform="translate(24.853 0)"><g transform="translate(0)"><path d="M70.644.7a.744.744,0,0,0-.01-.089l0-.019a.739.739,0,0,0-.02-.078l0-.013a.737.737,0,0,0-.035-.085L70.564.406a.753.753,0,0,0-.041-.071L70.515.322a.738.738,0,0,0-.057-.073L70.445.236,70.415.2,70.387.18,70.378.172l-.006,0A.745.745,0,0,0,70.3.113L70.284.106a.723.723,0,0,0-.073-.038L70.194.06a.738.738,0,0,0-.085-.031l-.015,0A.757.757,0,0,0,70.018.01L70,.006A.737.737,0,0,0,69.909,0h-.019q-.037,0-.074.005l-.022,0A.713.713,0,0,0,69.7.027l-.015,0A.769.769,0,0,0,69.61.06l-.009,0L37.524,14.32a.743.743,0,0,0,.6,1.358L65.837,3.363,40.229,26.126l-12.8-5.691L35.161,17a.743.743,0,1,0-.6-1.358l-9.263,4.117a.743.743,0,0,0,0,1.358l14.389,6.4L41.27,39.4s0,.006,0,.01a.746.746,0,0,0,.023.106l0,.01a.723.723,0,0,0,.039.1l0,.009a.743.743,0,0,0,.054.091l.012.017a.67.67,0,0,0,.149.151l.017.012a.756.756,0,0,0,.091.056l.008,0a.745.745,0,0,0,.1.04l.012,0a.753.753,0,0,0,.106.025l.009,0h.011a.748.748,0,0,0,.1.007h0a.734.734,0,0,0,.094-.007l.022,0a.74.74,0,0,0,.182-.054l.017-.008a.738.738,0,0,0,.081-.044l0,0a.721.721,0,0,0,.076-.057l.019-.017.026-.023,6.384-6.285,10.674,8.79a.743.743,0,0,0,1.195-.4L70.625.916s0,0,0-.006a.731.731,0,0,0,.015-.092c0-.006,0-.011,0-.017a.761.761,0,0,0,0-.079C70.645.715,70.645.709,70.644.7ZM42.4,36.643l-1.247-9.351L63.723,7.23,45.53,29.815l-.01.014c-.014.018-.027.036-.039.055l-.013.022q-.016.028-.03.057l-.006.012Zm1.94-.678,2.043-4.5L47.758,32.6Zm15.271,4.473L47.148,30.174,68.41,3.78Z" transform="translate(-24.853 0)"/></g></g><g transform="translate(39.622 39.384)"><path d="M181.79,397.815a.743.743,0,0,0-1.051,0l-6.564,6.564a.743.743,0,1,0,1.051,1.051l6.564-6.564A.743.743,0,0,0,181.79,397.815Z" transform="translate(-173.958 -397.598)"/></g><g transform="translate(29.827 31.23)"><g transform="translate(0)"><path d="M82.851,315.5a.743.743,0,0,0-1.051,0l-6.513,6.513a.743.743,0,0,0,1.051,1.051l6.513-6.513A.743.743,0,0,0,82.851,315.5Z" transform="translate(-75.07 -315.282)"/></g></g><g transform="translate(26.494 39.384)"><g transform="translate(0)"><path d="M52.533,397.818a.743.743,0,0,0-1.051,0l-9.846,9.846a.743.743,0,1,0,1.051,1.051l9.846-9.846A.743.743,0,0,0,52.533,397.818Z" transform="translate(-41.419 -397.6)"/></g></g></g></g></svg>