<svg xmlns="http://www.w3.org/2000/svg" width="322.197" height="320" viewBox="0 0 322.197 320"><g transform="translate(-797.803 -119)"><rect width="320" height="320" transform="translate(800 119)" fill="#101010"/><path d="M-3932.2,329.657l322.2-320v314a6,6,0,0,1-6,6Z" transform="translate(4730 109.343)"/><g transform="translate(930 249)"><path d="M30.006,56.262A26.255,26.255,0,1,1,56.262,30.006,26.255,26.255,0,0,1,30.006,56.262Zm0,3.751A30.006,30.006,0,1,0,0,30.006,30.006,30.006,0,0,0,30.006,60.012Z" fill="#fff"/><path d="M7.016,5.208a1.875,1.875,0,0,1,1.95.143l13.128,9.377a1.875,1.875,0,0,1,0,3.053L8.967,27.157A1.875,1.875,0,0,1,6,25.631V6.877A1.875,1.875,0,0,1,7.016,5.208Z" transform="translate(16.505 13.753)" fill="#fff"/></g></g></svg>