<svg xmlns="http://www.w3.org/2000/svg" width="405.149" height="430.472" viewBox="0 0 405.149 430.472"><g transform="translate(-0.603 -301.576)"><g transform="translate(787.768 683.484) rotate(130)"><path d="M4025,1671.8s19.925-25.9,49.881-2.3,50.643.6,74.969,0" transform="matrix(0.966, 0.259, -0.259, 0.966, -3436.359, -2107.933)" fill="none" stroke="#000" stroke-linecap="round" stroke-width="5"/><path d="M4025,1671.8s19.925-25.9,49.881-2.3,50.643.6,74.969,0" transform="matrix(0.966, 0.259, -0.259, 0.966, -3441.536, -2088.614)" fill="none" stroke="#000" stroke-linecap="round" stroke-width="5"/><path d="M4025,1671.8s19.925-25.9,49.881-2.3,50.643.6,74.969,0" transform="matrix(0.966, 0.259, -0.259, 0.966, -3446.712, -2069.296)" fill="none" stroke="#000" stroke-linecap="round" stroke-width="5"/></g><path d="M229.589,7.068c22.979,8.754,38.846,33.922,35.563,59.636s-25.715,51.977-17.508,83.163,47.6,66.749,50.882,93.558c3.83,26.262-27.9,43.223-58.542,45.958-31.186,2.736-61.825-8.754-85.351-20.791-24.073-12.037-40.487-24.621-57.448-35.016C80.224,222.635,62.716,213.334,37,198.561c-25.168-14.225-59.089-33.922-67.843-58.542C-39.049,115.4-22.088,86.4-8.41,51.385s24.073-75.5,49.788-82.616c25.168-7.113,65.655,19.7,100.671,29C177.065,6.521,207.157-1.139,229.589,7.068Z" transform="translate(365.104 436.786) rotate(107)" fill="#a8aefd" stroke="#707070" stroke-width="0"/><g transform="translate(-339.177 227.058) rotate(-40)"><path d="M4025,1671.8s19.925-25.9,49.881-2.3,50.643.6,74.969,0" transform="matrix(0.966, 0.259, -0.259, 0.966, -3436.359, -2107.933)" fill="none" stroke="#000" stroke-linecap="round" stroke-width="5"/><path d="M4025,1671.8s19.925-25.9,49.881-2.3,50.643.6,74.969,0" transform="matrix(0.966, 0.259, -0.259, 0.966, -3441.536, -2088.614)" fill="none" stroke="#000" stroke-linecap="round" stroke-width="5"/><path d="M4025,1671.8s19.925-25.9,49.881-2.3,50.643.6,74.969,0" transform="matrix(0.966, 0.259, -0.259, 0.966, -3446.712, -2069.296)" fill="none" stroke="#000" stroke-linecap="round" stroke-width="5"/></g><g transform="translate(116.841 308.4)"><path d="M496.821,184.291h-1.8V134.87a28.6,28.6,0,0,0-28.6-28.6H361.707a28.6,28.6,0,0,0-28.6,28.6V406a28.6,28.6,0,0,0,28.6,28.6H466.413a28.6,28.6,0,0,0,28.6-28.6V219.47h1.8Z" transform="translate(-317.944 -85.948)" fill="#3f3d56"/><path d="M494.8,140.607V411.336a21.446,21.446,0,0,1-7.844,16.549,19.854,19.854,0,0,1-1.691,1.243,21.264,21.264,0,0,1-11.827,3.57H368.228a21.117,21.117,0,0,1-5.062-.606,21.361,21.361,0,0,1-16.3-20.756V140.607a21.364,21.364,0,0,1,21.36-21.362h12.768a10.146,10.146,0,0,0,9.4,13.979h59.982a10.159,10.159,0,0,0,9.4-13.979h13.663A21.364,21.364,0,0,1,494.8,140.6Z" transform="translate(-323.816 -91.485)" fill="#fff"/><ellipse cx="2.486" cy="4.972" rx="2.486" ry="4.972" transform="translate(125.517 199.83)" fill="#f0eded"/><g transform="translate(57.159 144.6)" fill="#0c48aa" stroke="#0c48aa" stroke-width="3"><circle cx="40" cy="40" r="40" stroke="none"/><circle cx="40" cy="40" r="38.5" fill="none"/></g><g transform="translate(82.875 173.189)"><path d="M20.357,7.674h7.016a.446.446,0,0,1,.343.732l-3.508,4.211a.446.446,0,0,1-.685,0L20.015,8.406a.446.446,0,0,1,.343-.732ZM.73,11.243H7.746a.446.446,0,0,0,.343-.732L4.581,6.3a.446.446,0,0,0-.685,0L.387,10.511a.446.446,0,0,0,.343.732Z" transform="translate(0 3.246)" fill="#fff"/><path d="M12.641,3.783A8.9,8.9,0,0,0,5.759,7.027.892.892,0,1,1,4.383,5.892,10.709,10.709,0,0,1,23.2,10.92H21.384a8.925,8.925,0,0,0-8.743-7.137ZM3.9,14.489a8.925,8.925,0,0,0,15.625,3.893A.892.892,0,1,1,20.9,19.517,10.709,10.709,0,0,1,2.083,14.489Z" transform="translate(1.411 0)" fill="#fff" fill-rule="evenodd"/></g></g><g transform="translate(49 419)"><path d="M28.283,64.567a8.289,8.289,0,0,0,8.189-7.1H49.093L47.563,59l1.673,1.673,3.55-3.55a1.183,1.183,0,0,0,0-1.673l-3.55-3.55L47.563,53.57l1.53,1.53H36.472a8.279,8.279,0,1,0-8.189,9.467Zm0-14.2a5.917,5.917,0,1,1-5.917,5.917A5.924,5.924,0,0,1,28.283,50.367Z" transform="translate(233.3 108.433)"/><path d="M56.283,64.567A8.283,8.283,0,1,0,48,56.283,8.293,8.293,0,0,0,56.283,64.567Zm0-14.2a5.917,5.917,0,1,1-5.917,5.917A5.924,5.924,0,0,1,56.283,50.367Z" transform="translate(238.433 108.433)"/><path d="M26.85,25a8.289,8.289,0,0,0-8.189,7.1h-1.87a14.792,14.792,0,1,0,0,29.583H19.26l-1.53,1.53L19.4,64.887l3.55-3.55a1.183,1.183,0,0,0,0-1.673l-3.55-3.55L17.73,57.787l1.53,1.53H16.792a12.425,12.425,0,0,1,0-24.85h1.87A8.279,8.279,0,1,0,26.85,25Zm0,14.2a5.917,5.917,0,1,1,5.917-5.917A5.924,5.924,0,0,1,26.85,39.2Z" transform="translate(10 24.217)"/><path d="M31.237,5.9,29.563,7.57l1.53,1.53H18.472a8.283,8.283,0,1,0,0,2.367H31.093L29.563,13l1.673,1.673,3.55-3.55a1.183,1.183,0,0,0,0-1.673ZM10.283,16.2A5.917,5.917,0,1,1,16.2,10.283,5.924,5.924,0,0,1,10.283,16.2Z" transform="translate(40 -70)"/><path d="M67.867,23.892A14.808,14.808,0,0,0,53.075,9.1h-6.6a8.283,8.283,0,1,0,0,2.367h6.6a12.425,12.425,0,1,1,0,24.85H34.04l1.53-1.53L33.9,33.113l-3.55,3.55a1.183,1.183,0,0,0,0,1.673l3.55,3.55,1.673-1.673-1.53-1.53H53.075A14.808,14.808,0,0,0,67.867,23.892ZM38.283,16.2A5.917,5.917,0,1,1,44.2,10.283,5.924,5.924,0,0,1,38.283,16.2Z" transform="translate(235.133)"/></g></g></svg>