<svg xmlns="http://www.w3.org/2000/svg" width="406.231" height="448.923" viewBox="0 0 406.231 448.923"><g transform="translate(-10.884 -258.133)"><g transform="translate(41.487 61)"><path d="M4025,1671.8s19.925-25.9,49.881-2.3,50.643.6,74.969,0" transform="matrix(0.966, 0.259, -0.259, 0.966, -3436.359, -2107.933)" fill="none" stroke="#000" stroke-linecap="round" stroke-width="5"/><path d="M4025,1671.8s19.925-25.9,49.881-2.3,50.643.6,74.969,0" transform="matrix(0.966, 0.259, -0.259, 0.966, -3441.536, -2088.614)" fill="none" stroke="#000" stroke-linecap="round" stroke-width="5"/><path d="M4025,1671.8s19.925-25.9,49.881-2.3,50.643.6,74.969,0" transform="matrix(0.966, 0.259, -0.259, 0.966, -3446.712, -2069.296)" fill="none" stroke="#000" stroke-linecap="round" stroke-width="5"/></g><path d="M167.841-6.746c17.972,11.981,31.077,31.077,48.674,50.921,17.972,19.844,40.437,40.811,44.93,64.025,4.119,23.214-10.109,48.674-23.963,75.258-14.228,26.209-28.456,53.167-50.546,60.281-22.465,6.74-52.793-5.991-82.372-7.488-29.953-1.123-58.783,9.735-80.5,2.247s-35.944-32.574-41.935-57.66c-6.365-25.46-4.493-50.172-8.986-77.879-4.493-27.332-14.977-57.66-9.36-83.5C-30.226-6.372-8.135-28.462,17.7-35.576c26.209-7.114,56.163.374,82.746,6.365C126.655-23.221,149.869-18.728,167.841-6.746Z" transform="matrix(0.588, -0.809, 0.809, 0.588, 64.247, 492.846)" fill="#a8aeff"/><g transform="translate(116.841 358.4)"><path d="M496.821,184.291h-1.8V134.87a28.6,28.6,0,0,0-28.6-28.6H361.707a28.6,28.6,0,0,0-28.6,28.6V406a28.6,28.6,0,0,0,28.6,28.6H466.413a28.6,28.6,0,0,0,28.6-28.6V219.47h1.8Z" transform="translate(-317.944 -85.948)" fill="#3f3d56"/><path d="M494.8,140.607V411.336a21.446,21.446,0,0,1-7.844,16.549,19.854,19.854,0,0,1-1.691,1.243,21.264,21.264,0,0,1-11.827,3.57H368.228a21.117,21.117,0,0,1-5.062-.606,21.361,21.361,0,0,1-16.3-20.756V140.607a21.364,21.364,0,0,1,21.36-21.362h12.768a10.146,10.146,0,0,0,9.4,13.979h59.982a10.159,10.159,0,0,0,9.4-13.979h13.663A21.364,21.364,0,0,1,494.8,140.6Z" transform="translate(-323.816 -91.485)" fill="#fff"/><path d="M437.36,470.784s10.328,28.688,2.3,44.753,12.623,34.425,12.623,34.425,53.933-27.54,47.048-41.31-18.36-32.13-16.065-43.605Z" transform="translate(-362.422 -239.009)" fill="#f0eded"/><circle cx="36.72" cy="36.72" r="36.72" transform="translate(58.299 169.235)" fill="#f0eded"/><path d="M515.261,600.59a21.361,21.361,0,0,1-3.273,3.346,19.84,19.84,0,0,1-1.691,1.243c-3.389,2.255-7.45,2.964-11.827,2.964H405.541l1.606-44.6,10.329-22.95a47.938,47.938,0,0,0,7.414,4.783c.618.333,1.273.667,1.958.994,9.675,4.674,25.49,8.784,40.821-2.661a58.471,58.471,0,0,0,14.13-15.9l28.624,16.228,1.5,17.58Z" transform="translate(-348.847 -265.783)" fill="#fff"/><path d="M408.039,520.151,406.6,535.166l-.758,7.935-1.134,11.815-4.844,50.568H372.255a21.123,21.123,0,0,1-5.062-.606l-10.887-50.344.315-.206Z" transform="translate(-327.843 -262.518)" fill="#2f2e41"/><path d="M561.483,523.346V577a21.447,21.447,0,0,1-7.844,16.549,19.84,19.84,0,0,1-1.691,1.243,21.264,21.264,0,0,1-11.827,3.57H503.174c.806-16.955,2.231-33.5,3.9-47.919.715-6.141,1.473-11.893,2.249-17.125,2.5-16.864,5.177-28.315,7.1-29.861l12.706,8.384Z" transform="translate(-390.499 -255.396)" fill="#2f2e41"/><path d="M378.672,620.575l-1.322,9.638h-9.123a21.12,21.12,0,0,1-5.062-.606,21.361,21.361,0,0,1-16.3-20.756v-1.94l4.268-27.648,1.461-.206,6.571-.94Z" transform="translate(-323.816 -287.247)" fill="#2f2e41"/><path d="M593.6,550.345V597a21.447,21.447,0,0,1-7.844,16.549,19.822,19.822,0,0,1-1.691,1.243l-5.613-24.429,7.244-19.137Z" transform="translate(-422.612 -275.399)" fill="#2f2e41"/><path d="M476.328,357.147a42.9,42.9,0,0,0-24.4-18.655l-7.461,5.969,2.9-6.962a39.492,39.492,0,0,0-7.374-.426l-6.713,8.631,2.778-8.335a42.488,42.488,0,0,0-29.31,17.435c-8.544,12.319-9.985,29.451-1.582,41.867,2.307-7.089,5.106-13.741,7.413-20.829.532.228,2.549.213,5.466.027l2.807-6.548.784,6.271c8.7-.758,21.6-2.422,29.847-3.946l-.8-4.811,4.8,4c2.527-.582,4.027-1.109,3.9-1.512,6.133,9.887,12.21,16.2,18.343,26.09C480.051,381.462,484.161,369.869,476.328,357.147Z" transform="translate(-346.292 -184.403)" fill="#2f2e41"/><ellipse cx="2.486" cy="4.972" rx="2.486" ry="4.972" transform="translate(125.517 199.83)" fill="#f0eded"/><path d="M374.87,234.549a12.124,12.124,0,1,1,12.124-12.124A12.124,12.124,0,0,1,374.87,234.549Zm0-23.035a10.911,10.911,0,1,0,10.911,10.911,10.911,10.911,0,0,0-10.911-10.911Z" transform="translate(-330.59 -130.331)" fill="#0c48aa" opacity="0.2"/><circle cx="1.819" cy="1.819" r="1.819" transform="translate(37.611 87.245)" fill="#0c48aa" opacity="0.2"/><circle cx="1.819" cy="1.819" r="1.819" transform="translate(46.704 87.245)" fill="#0c48aa" opacity="0.2"/><path d="M384.074,237.945h-9.093a.606.606,0,1,1,0-1.212h9.093a.606.606,0,1,1,0,1.212Z" transform="translate(-335.552 -141.607)" fill="#0c48aa" opacity="0.2"/><path d="M558.824,234.549a12.124,12.124,0,1,1,12.124-12.124A12.124,12.124,0,0,1,558.824,234.549Zm0-23.035a10.911,10.911,0,1,0,10.911,10.911,10.911,10.911,0,0,0-10.911-10.911Z" transform="translate(-409.068 -130.331)" fill="#0c48aa" opacity="0.2"/><circle cx="1.819" cy="1.819" r="1.819" transform="translate(143.088 87.245)" fill="#0c48aa" opacity="0.2"/><circle cx="1.819" cy="1.819" r="1.819" transform="translate(152.181 87.245)" fill="#0c48aa" opacity="0.2"/><path d="M568.028,239.086a.6.6,0,0,1-.3-.081,7.925,7.925,0,0,0-8.488,0,.606.606,0,0,1-.605-1.051,9.162,9.162,0,0,1,9.7,0,.606.606,0,0,1-.3,1.132Z" transform="translate(-414.029 -141.536)" fill="#0c48aa" opacity="0.2"/><path d="M458.61,237.747a24.615,24.615,0,1,1,24.615-24.615A24.615,24.615,0,0,1,458.61,237.747Zm0-46.768a22.153,22.153,0,1,0,22.153,22.153,22.153,22.153,0,0,0-22.153-22.153Z" transform="translate(-360.986 -121.037)" fill="#0c48aa"/><circle cx="3.692" cy="3.692" r="3.692" transform="translate(84.086 82.249)" fill="#0c48aa"/><circle cx="3.692" cy="3.692" r="3.692" transform="translate(102.547 82.249)" fill="#0c48aa"/><path d="M468.7,248.042q-4.966,0-10.529-3.6a1.23,1.23,0,0,1,1.339-2.065c6.523,4.229,12.081,4.259,17,.094a1.231,1.231,0,1,1,1.591,1.877A14.281,14.281,0,0,1,468.7,248.042Z" transform="translate(-371.059 -143.93)" fill="#0c48aa"/><path d="M239.932,233.945h-16v-2.461H237.47V217.946h2.462Z" transform="translate(-101.693 -101.236)" fill="#0c48aa"/><path d="M112.632,120.183H110.17v-16h16v2.462H112.632Z" transform="translate(-53.161 -52.703)" fill="#0c48aa"/></g><g transform="translate(54.094 449.732) rotate(-30)"><path d="M45.943,32.629a3.063,3.063,0,0,1-3.063,3.063H6.126a3.063,3.063,0,0,1-3.063-3.063V14.251a3.063,3.063,0,0,1,3.063-3.063h3.59A9.189,9.189,0,0,0,16.209,8.5L18.751,5.96a3.063,3.063,0,0,1,2.159-.9H28.09a3.062,3.062,0,0,1,2.165.9L32.791,8.5a9.189,9.189,0,0,0,6.5,2.692h3.59a3.063,3.063,0,0,1,3.063,3.063ZM6.126,8.126A6.126,6.126,0,0,0,0,14.251V32.629a6.126,6.126,0,0,0,6.126,6.126H42.88a6.126,6.126,0,0,0,6.126-6.126V14.251A6.126,6.126,0,0,0,42.88,8.126H39.29a6.125,6.125,0,0,1-4.33-1.794L32.424,3.795A6.126,6.126,0,0,0,28.093,2H20.913a6.125,6.125,0,0,0-4.33,1.794L14.046,6.331A6.126,6.126,0,0,1,9.715,8.126Z" transform="translate(0)"/><path d="M20.377,23.377a7.657,7.657,0,1,1,7.657-7.657A7.657,7.657,0,0,1,20.377,23.377Zm0,3.063A10.72,10.72,0,1,0,9.657,15.72a10.72,10.72,0,0,0,10.72,10.72ZM5.063,9.594A1.531,1.531,0,1,1,3.531,8.063,1.531,1.531,0,0,1,5.063,9.594Z" transform="translate(4.126 6.189)"/></g><path d="M0,9.125A6.125,6.125,0,0,1,6.125,3H29.094a6.125,6.125,0,0,1,6.073,5.323L44.691,4.09A3.063,3.063,0,0,1,49,6.886V29.739a3.063,3.063,0,0,1-4.306,2.8L35.167,28.3a6.125,6.125,0,0,1-6.073,5.323H6.125A6.125,6.125,0,0,1,0,27.5ZM35.219,24.973l10.719,4.765V6.886L35.219,11.652V24.973ZM6.125,6.063A3.062,3.062,0,0,0,3.063,9.125V27.5a3.062,3.062,0,0,0,3.062,3.063H29.094A3.062,3.062,0,0,0,32.156,27.5V9.125a3.063,3.063,0,0,0-3.062-3.062Z" transform="translate(335.725 533.956) rotate(16)" fill-rule="evenodd"/><g transform="translate(307.157 360.246)"><path d="M369.211,10.9a1.211,1.211,0,0,0,1.211-1.211V3.482a1.061,1.061,0,0,1,1.06-1.06h6.207a1.211,1.211,0,1,0,0-2.422h-6.207A3.486,3.486,0,0,0,368,3.482V9.689A1.211,1.211,0,0,0,369.211,10.9Z" transform="translate(-368)"/><path d="M9.689,10.9A1.211,1.211,0,0,0,10.9,9.689V3.482A3.486,3.486,0,0,0,7.418,0H1.211a1.211,1.211,0,0,0,0,2.422H7.418a1.061,1.061,0,0,1,1.06,1.06V9.689A1.211,1.211,0,0,0,9.689,10.9Z" transform="translate(27.855)"/><path d="M1.211,378.9H7.418a3.486,3.486,0,0,0,3.482-3.482v-6.207a1.211,1.211,0,1,0-2.422,0v6.207a1.061,1.061,0,0,1-1.06,1.06H1.211a1.211,1.211,0,0,0,0,2.422Z" transform="translate(27.855 -340.145)"/><path d="M371.482,378.9h6.207a1.211,1.211,0,1,0,0-2.422h-6.207a1.061,1.061,0,0,1-1.06-1.06v-6.207a1.211,1.211,0,1,0-2.422,0v6.207A3.486,3.486,0,0,0,371.482,378.9Z" transform="translate(-368 -340.145)"/><path d="M67.482,77.322H73.84a3.486,3.486,0,0,0,3.482-3.482V67.482A3.486,3.486,0,0,0,73.84,64H67.482A3.486,3.486,0,0,0,64,67.482V73.84A3.486,3.486,0,0,0,67.482,77.322Zm6.358-10.9a1.061,1.061,0,0,1,1.06,1.06V73.84a1.061,1.061,0,0,1-1.06,1.06H67.482a1.061,1.061,0,0,1-1.06-1.06V67.482a1.061,1.061,0,0,1,1.06-1.06Z" transform="translate(-43.412 -59.156)"/><path d="M67.482,285.322H73.84a3.486,3.486,0,0,0,3.482-3.482v-6.358A3.486,3.486,0,0,0,73.84,272H67.482A3.486,3.486,0,0,0,64,275.482v6.358A3.486,3.486,0,0,0,67.482,285.322Zm6.358-10.9a1.061,1.061,0,0,1,1.06,1.06v6.358a1.061,1.061,0,0,1-1.06,1.06H67.482a1.061,1.061,0,0,1-1.06-1.06v-6.358a1.061,1.061,0,0,1,1.06-1.06Z" transform="translate(-43.412 -251.412)"/><path d="M275.482,77.322h6.358a3.486,3.486,0,0,0,3.482-3.482V67.482A3.486,3.486,0,0,0,281.84,64h-6.358A3.486,3.486,0,0,0,272,67.482V73.84A3.486,3.486,0,0,0,275.482,77.322Zm6.358-10.9a1.061,1.061,0,0,1,1.06,1.06V73.84a1.061,1.061,0,0,1-1.06,1.06h-6.358a1.061,1.061,0,0,1-1.06-1.06V67.482a1.061,1.061,0,0,1,1.06-1.06Z" transform="translate(-267.156 -59.156)"/><path d="M273.968,278.055h2.876v-4.087A1.97,1.97,0,0,1,278.812,272h4.542a1.97,1.97,0,0,1,1.968,1.968v4.542a1.97,1.97,0,0,1-1.968,1.968h-4.087v2.876a1.97,1.97,0,0,1-1.968,1.968h-3.33A1.97,1.97,0,0,1,272,283.354v-3.33A1.97,1.97,0,0,1,273.968,278.055Zm8.932-3.633h-3.633v3.633H282.9Zm-8.477,8.477h2.422v-2.422h-2.422Z" transform="translate(-267.156 -251.412)"/><path d="M129.211,131.633h1.211a1.211,1.211,0,0,0,1.211-1.211v-1.211A1.211,1.211,0,0,0,130.422,128h-1.211A1.211,1.211,0,0,0,128,129.211v1.211A1.211,1.211,0,0,0,129.211,131.633Z" transform="translate(-102.568 -118.311)"/><path d="M337.211,131.633h1.211a1.211,1.211,0,0,0,1.211-1.211v-1.211A1.211,1.211,0,0,0,338.422,128h-1.211A1.211,1.211,0,0,0,336,129.211v1.211A1.211,1.211,0,0,0,337.211,131.633Z" transform="translate(-326.311 -118.311)"/><path d="M129.211,339.633h1.211a1.211,1.211,0,0,0,1.211-1.211v-1.211A1.211,1.211,0,0,0,130.422,336h-1.211A1.211,1.211,0,0,0,128,337.211v1.211A1.211,1.211,0,0,0,129.211,339.633Z" transform="translate(-102.568 -310.568)"/></g></g></svg>